<svg xmlns="http://www.w3.org/2000/svg" xmlns:xlink="http://www.w3.org/1999/xlink" width="500" zoomAndPan="magnify" viewBox="0 0 375 374.999991" height="500" preserveAspectRatio="xMidYMid meet" version="1.0"><defs><g/><clipPath id="7aa0d69d75"><path d="M 118.617188 105 L 256.617188 105 L 256.617188 178.277344 L 118.617188 178.277344 Z M 118.617188 105 " clip-rule="nonzero"/></clipPath><clipPath id="389b6313af"><path d="M 118.617188 95 L 256.617188 95 L 256.617188 178.277344 L 118.617188 178.277344 Z M 118.617188 95 " clip-rule="nonzero"/></clipPath><clipPath id="c38fad9f16"><path d="M 155 71.027344 L 221 71.027344 L 221 178.277344 L 155 178.277344 Z M 155 71.027344 " clip-rule="nonzero"/></clipPath><clipPath id="e22ec120c9"><path d="M 60.214844 50.945312 L 314.464844 50.945312 L 314.464844 305.195312 L 60.214844 305.195312 Z M 60.214844 50.945312 " clip-rule="nonzero"/></clipPath></defs><g clip-path="url(#7aa0d69d75)"><path fill="#ab77db" d="M 187.664062 178.277344 C 187.664062 178.277344 187.617188 178.277344 187.617188 178.277344 C 187.617188 178.277344 187.574219 178.277344 187.574219 178.277344 C 119.421875 178.1875 118.796875 105.324219 118.796875 105.324219 C 118.796875 105.324219 144.277344 102.523438 159.601562 116.933594 L 187.617188 178.144531 L 215.636719 116.933594 C 230.960938 102.476562 256.4375 105.324219 256.4375 105.324219 C 256.4375 105.324219 255.816406 178.1875 187.664062 178.277344 Z M 187.664062 178.277344 " fill-opacity="1" fill-rule="nonzero"/></g><g clip-path="url(#389b6313af)"><path stroke-linecap="butt" transform="matrix(0.445436, 0, 0, 0.444836, 118.798708, 71.027105)" fill="none" stroke-linejoin="miter" d="M 88.199487 131.500864 L 118.498099 226.400633 C 117.296678 225.900098 66.503751 206.598748 41.896542 160.303607 C 30.101569 137.999044 27.400563 113.903091 24.796023 96.999042 C 42.7998 98.702619 71.598829 109.503648 88.199487 131.500864 Z M 220.803052 132.0014 L 190.49567 226.795793 C 191.697091 226.304039 243.402046 205.597677 267.097227 161.102708 C 278.90097 138.903521 281.601975 114.904162 284.197746 98.000113 C 266.202738 99.598314 237.40371 110.100778 220.803052 132.0014 Z M 220.803052 132.0014 " stroke="#fccc54" stroke-width="3" stroke-opacity="1" stroke-miterlimit="10"/></g><g clip-path="url(#c38fad9f16)"><path fill="#ab77db" d="M 220.179688 139.132812 C 220.179688 166.535156 205.613281 178.234375 187.617188 178.234375 C 169.621094 178.234375 155.058594 166.535156 155.058594 139.132812 C 155.101562 107.28125 187.664062 71.027344 187.664062 71.027344 C 187.664062 71.027344 220.179688 107.28125 220.179688 139.132812 Z M 220.179688 139.132812 " fill-opacity="1" fill-rule="nonzero"/></g><path fill="#fccc54" d="M 209.847656 147.40625 C 209.847656 161.152344 206.105469 171.160156 199.421875 176.273438 C 197.683594 176.898438 195.902344 177.34375 194.078125 177.65625 C 197.328125 176.496094 200.136719 174.40625 202.363281 171.425781 C 206.460938 165.957031 208.507812 157.902344 208.507812 147.40625 C 208.507812 125.074219 191.003906 98.519531 187.664062 93.667969 C 184.324219 98.519531 166.816406 125.074219 166.816406 147.40625 C 166.816406 157.859375 168.910156 165.957031 172.964844 171.425781 C 175.191406 174.40625 177.996094 176.496094 181.25 177.65625 C 179.378906 177.34375 177.597656 176.855469 175.902344 176.273438 C 169.222656 171.203125 165.480469 161.152344 165.480469 147.40625 C 165.480469 122.40625 186.90625 92.378906 187.128906 92.113281 L 187.664062 91.355469 L 188.199219 92.113281 C 188.421875 92.421875 209.847656 122.40625 209.847656 147.40625 Z M 209.847656 147.40625 " fill-opacity="1" fill-rule="nonzero"/><g clip-path="url(#e22ec120c9)"><path fill="#ab77db" d="M 187.339844 305.195312 C 117.105469 305.195312 60.214844 247.910156 60.214844 178.070312 C 60.214844 108.230469 117.105469 50.945312 187.339844 50.945312 C 257.574219 50.945312 314.464844 107.839844 314.464844 178.070312 C 314.464844 248.304688 257.179688 305.195312 187.339844 305.195312 Z M 187.339844 58.792969 C 121.421875 58.792969 68.0625 112.15625 68.0625 178.070312 C 68.0625 243.988281 121.421875 297.347656 187.339844 297.347656 C 253.257812 297.347656 306.617188 243.988281 306.617188 178.070312 C 306.617188 112.15625 252.863281 58.792969 187.339844 58.792969 Z M 187.339844 58.792969 " fill-opacity="1" fill-rule="nonzero"/></g><g fill="#ab77db" fill-opacity="1"><g transform="translate(85.687499, 239.59598)"><g><path d="M 24.984375 -51.453125 C 23.660156 -51.453125 22.421875 -50.765625 21.265625 -49.390625 C 20.117188 -48.015625 19.117188 -46.148438 18.265625 -43.796875 C 17.410156 -41.453125 16.738281 -38.722656 16.25 -35.609375 C 15.757812 -32.492188 15.515625 -29.195312 15.515625 -25.71875 C 15.515625 -22.238281 15.757812 -18.941406 16.25 -15.828125 C 16.738281 -12.722656 17.410156 -9.992188 18.265625 -7.640625 C 19.117188 -5.285156 20.117188 -3.421875 21.265625 -2.046875 C 22.421875 -0.679688 23.660156 0 24.984375 0 C 21.804688 0 18.804688 -0.671875 15.984375 -2.015625 C 13.171875 -3.367188 10.707031 -5.207031 8.59375 -7.53125 C 6.488281 -9.863281 4.835938 -12.597656 3.640625 -15.734375 C 2.441406 -18.867188 1.84375 -22.195312 1.84375 -25.71875 C 1.84375 -29.25 2.441406 -32.582031 3.640625 -35.71875 C 4.835938 -38.851562 6.488281 -41.582031 8.59375 -43.90625 C 10.707031 -46.238281 13.171875 -48.078125 15.984375 -49.421875 C 18.804688 -50.773438 21.804688 -51.453125 24.984375 -51.453125 Z M 33.21875 -46.8125 C 33.21875 -47.550781 33.007812 -48.1875 32.59375 -48.71875 C 32.175781 -49.257812 31.648438 -49.710938 31.015625 -50.078125 C 30.378906 -50.453125 29.679688 -50.738281 28.921875 -50.9375 C 28.160156 -51.132812 27.4375 -51.28125 26.75 -51.375 C 28.519531 -51.226562 30.234375 -50.875 31.890625 -50.3125 C 33.554688 -49.75 35.097656 -49.035156 36.515625 -48.171875 C 37.941406 -47.316406 39.207031 -46.347656 40.3125 -45.265625 C 41.414062 -44.191406 42.335938 -43.09375 43.078125 -41.96875 C 43.566406 -41.132812 43.941406 -40.3125 44.203125 -39.5 C 44.472656 -38.695312 44.609375 -37.90625 44.609375 -37.125 C 44.609375 -36.039062 44.398438 -35.019531 43.984375 -34.0625 C 43.566406 -33.113281 43.003906 -32.28125 42.296875 -31.5625 C 41.585938 -30.851562 40.753906 -30.289062 39.796875 -29.875 C 38.835938 -29.457031 37.820312 -29.25 36.75 -29.25 C 35.675781 -29.25 34.660156 -29.457031 33.703125 -29.875 C 32.742188 -30.289062 31.910156 -30.851562 31.203125 -31.5625 C 30.492188 -32.28125 29.929688 -33.113281 29.515625 -34.0625 C 29.097656 -35.019531 28.890625 -36.039062 28.890625 -37.125 C 28.890625 -38.144531 29.070312 -39.117188 29.4375 -40.046875 C 29.800781 -40.984375 30.328125 -41.820312 31.015625 -42.5625 C 31.703125 -43.238281 32.238281 -43.945312 32.625 -44.6875 C 33.019531 -45.425781 33.21875 -46.132812 33.21875 -46.8125 Z M 49.03125 -20.140625 C 47.800781 -20.140625 46.753906 -19.632812 45.890625 -18.625 C 45.035156 -17.625 44.609375 -16.507812 44.609375 -15.28125 L 44.609375 0 C 43.734375 -0.539062 42.78125 -0.984375 41.75 -1.328125 C 40.71875 -1.671875 39.515625 -1.84375 38.140625 -1.84375 C 36.960938 -1.84375 35.894531 -1.765625 34.9375 -1.609375 C 33.988281 -1.460938 33.070312 -1.289062 32.1875 -1.09375 C 31.3125 -0.90625 30.429688 -0.710938 29.546875 -0.515625 C 28.660156 -0.316406 27.726562 -0.171875 26.75 -0.078125 C 27.582031 -0.171875 28.441406 -0.398438 29.328125 -0.765625 C 30.210938 -1.140625 30.992188 -1.546875 31.671875 -1.984375 L 31.671875 -15.28125 C 31.671875 -16.507812 31.242188 -17.625 30.390625 -18.625 C 29.535156 -19.632812 28.46875 -20.140625 27.1875 -20.140625 Z M 49.03125 -20.140625 "/></g></g></g><g fill="#ab77db" fill-opacity="1"><g transform="translate(136.541354, 239.59598)"><g><path d="M 19.921875 0 C 22.023438 0 24.046875 -0.351562 25.984375 -1.0625 C 27.921875 -1.769531 29.671875 -2.75 31.234375 -4 C 32.804688 -5.25 34.164062 -6.71875 35.3125 -8.40625 C 36.46875 -10.101562 37.289062 -11.90625 37.78125 -13.8125 L 37.78125 0 Z M 23.671875 -51.453125 C 22.390625 -51.453125 21.320312 -50.945312 20.46875 -49.9375 C 19.613281 -48.9375 19.1875 -47.820312 19.1875 -46.59375 L 19.1875 0 L 1.84375 0 C 3.0625 0 4.097656 -0.5 4.953125 -1.5 C 5.816406 -2.507812 6.25 -3.625 6.25 -4.84375 L 6.25 -46.59375 C 6.25 -47.820312 5.816406 -48.9375 4.953125 -49.9375 C 4.097656 -50.945312 3.0625 -51.453125 1.84375 -51.453125 Z M 23.671875 -51.453125 "/></g></g></g><g fill="#ab77db" fill-opacity="1"><g transform="translate(176.151516, 239.59598)"><g><path d="M 11.765625 -8.15625 C 11.765625 -7.03125 11.972656 -5.960938 12.390625 -4.953125 C 12.804688 -3.953125 13.378906 -3.082031 14.109375 -2.34375 C 14.847656 -1.613281 15.707031 -1.039062 16.6875 -0.625 C 17.664062 -0.207031 18.71875 0 19.84375 0 L 1.84375 0 C 2.914062 -0.144531 3.953125 -0.488281 4.953125 -1.03125 C 5.960938 -1.570312 6.90625 -2.242188 7.78125 -3.046875 C 8.664062 -3.859375 9.453125 -4.753906 10.140625 -5.734375 C 10.828125 -6.710938 11.367188 -7.71875 11.765625 -8.75 Z M 25.875 0 C 26.90625 0 27.785156 -0.425781 28.515625 -1.28125 C 29.253906 -2.144531 29.625 -3.113281 29.625 -4.1875 C 29.625 -4.382812 29.625 -4.582031 29.625 -4.78125 C 29.625 -4.976562 29.570312 -5.171875 29.46875 -5.359375 L 27.34375 -11.546875 L 27.1875 -11.984375 L 21.96875 -27.046875 C 21.632812 -27.878906 21.023438 -28.296875 20.140625 -28.296875 C 19.304688 -28.296875 18.71875 -27.878906 18.375 -27.046875 L 27.1875 -51.453125 L 35.359375 -28 C 35.703125 -27.019531 36.09375 -25.851562 36.53125 -24.5 C 36.96875 -23.15625 37.359375 -21.992188 37.703125 -21.015625 L 43.734375 -3.828125 C 44.078125 -2.847656 44.675781 -1.960938 45.53125 -1.171875 C 46.382812 -0.390625 47.378906 0 48.515625 0 Z M 25.875 0 "/></g></g></g><g fill="#ab77db" fill-opacity="1"><g transform="translate(226.49096, 239.59598)"><g><path d="M 10.734375 -9.265625 C 10.734375 -8.085938 10.960938 -6.929688 11.421875 -5.796875 C 11.890625 -4.671875 12.523438 -3.679688 13.328125 -2.828125 C 14.140625 -1.972656 15.082031 -1.285156 16.15625 -0.765625 C 17.238281 -0.253906 18.367188 0 19.546875 0 L 1.84375 0 C 3.007812 0 4.128906 -0.253906 5.203125 -0.765625 C 6.285156 -1.285156 7.234375 -1.972656 8.046875 -2.828125 C 8.859375 -3.679688 9.507812 -4.671875 10 -5.796875 C 10.488281 -6.929688 10.734375 -8.085938 10.734375 -9.265625 Z M 34.109375 -23.890625 C 35.035156 -23.890625 35.671875 -24.351562 36.015625 -25.28125 L 35.28125 -23.15625 L 27.1875 0 L 14.40625 -36.96875 C 14.0625 -37.851562 13.425781 -38.296875 12.5 -38.296875 C 11.957031 -38.296875 11.488281 -38.097656 11.09375 -37.703125 C 10.707031 -37.316406 10.515625 -36.851562 10.515625 -36.3125 L 10.515625 -46.59375 C 10.515625 -47.820312 10.046875 -48.9375 9.109375 -49.9375 C 8.179688 -50.945312 7.101562 -51.453125 5.875 -51.453125 L 23.078125 -51.453125 L 30.9375 -28.890625 L 32.1875 -25.28125 C 32.289062 -24.894531 32.523438 -24.566406 32.890625 -24.296875 C 33.253906 -24.023438 33.660156 -23.890625 34.109375 -23.890625 Z M 61 -51.453125 C 59.78125 -51.453125 58.738281 -50.945312 57.875 -49.9375 C 57.019531 -48.9375 56.59375 -47.820312 56.59375 -46.59375 L 56.59375 -4.84375 C 56.59375 -3.625 57.019531 -2.507812 57.875 -1.5 C 58.738281 -0.5 59.78125 0 61 0 L 39.171875 0 C 40.453125 0 41.519531 -0.5 42.375 -1.5 C 43.226562 -2.507812 43.65625 -3.625 43.65625 -4.84375 L 43.65625 -36.671875 C 43.65625 -37.210938 43.445312 -37.691406 43.03125 -38.109375 C 42.613281 -38.523438 42.132812 -38.734375 41.59375 -38.734375 C 40.664062 -38.734375 40.03125 -38.269531 39.6875 -37.34375 L 40.9375 -41.015625 L 44.46875 -51.453125 Z M 61 -51.453125 "/></g></g></g><g fill="#fccc54" fill-opacity="1"><g transform="translate(136.869137, 260.825623)"><g><path d="M 9.875 0.296875 C 7.289062 0.296875 5.113281 -0.398438 3.34375 -1.796875 C 1.582031 -3.203125 0.703125 -5.210938 0.703125 -7.828125 C 0.703125 -9.359375 0.992188 -10.722656 1.578125 -11.921875 C 2.160156 -13.117188 2.925781 -14.0625 3.875 -14.75 C 5.789062 -16.144531 7.941406 -16.84375 10.328125 -16.84375 C 11.710938 -16.84375 13.15625 -16.59375 14.65625 -16.09375 L 14.40625 -14.40625 C 13.613281 -14.738281 13.003906 -14.988281 12.578125 -15.15625 C 11.328125 -15.601562 10.066406 -15.828125 8.796875 -15.828125 C 7.046875 -15.421875 5.695312 -14.550781 4.75 -13.21875 C 3.8125 -11.882812 3.34375 -10.21875 3.34375 -8.21875 C 3.34375 -5.769531 3.984375 -3.882812 5.265625 -2.5625 C 6.554688 -1.238281 8.25 -0.578125 10.34375 -0.578125 C 12.445312 -0.578125 14.015625 -1.023438 15.046875 -1.921875 L 15.046875 -0.546875 C 13.617188 0.015625 11.894531 0.296875 9.875 0.296875 Z M 9.875 0.296875 "/></g></g></g><g fill="#fccc54" fill-opacity="1"><g transform="translate(152.66664, 260.825623)"><g><path d="M 6.703125 -11.59375 C 8.171875 -11.59375 9.382812 -11.09375 10.34375 -10.09375 C 11.300781 -9.09375 11.78125 -7.71875 11.78125 -5.96875 C 11.78125 -4.851562 11.585938 -3.867188 11.203125 -3.015625 C 10.816406 -2.171875 10.316406 -1.515625 9.703125 -1.046875 C 8.515625 -0.148438 7.191406 0.296875 5.734375 0.296875 C 4.273438 0.296875 3.066406 -0.203125 2.109375 -1.203125 C 1.148438 -2.203125 0.671875 -3.578125 0.671875 -5.328125 C 0.671875 -6.441406 0.859375 -7.421875 1.234375 -8.265625 C 1.609375 -9.117188 2.101562 -9.78125 2.71875 -10.25 C 3.90625 -11.144531 5.234375 -11.59375 6.703125 -11.59375 Z M 6.203125 -0.546875 C 6.929688 -0.546875 7.554688 -0.832031 8.078125 -1.40625 C 9.003906 -2.40625 9.46875 -3.734375 9.46875 -5.390625 C 9.46875 -7.046875 9.1875 -8.335938 8.625 -9.265625 C 8.0625 -10.191406 7.132812 -10.65625 5.84375 -10.65625 C 4.894531 -10.28125 4.175781 -9.628906 3.6875 -8.703125 C 3.195312 -7.785156 2.953125 -6.671875 2.953125 -5.359375 C 2.953125 -4.054688 3.21875 -2.925781 3.75 -1.96875 C 4.28125 -1.019531 5.097656 -0.546875 6.203125 -0.546875 Z M 6.203125 -0.546875 "/></g></g></g><g fill="#fccc54" fill-opacity="1"><g transform="translate(165.164664, 260.825623)"><g><path d="M 4.21875 -10.546875 C 3.789062 -10.546875 3.4375 -10.382812 3.15625 -10.0625 C 2.882812 -9.738281 2.75 -9.367188 2.75 -8.953125 C 2.75 -8.546875 2.941406 -8.15625 3.328125 -7.78125 C 3.722656 -7.40625 4.195312 -7.070312 4.75 -6.78125 C 5.3125 -6.488281 5.867188 -6.1875 6.421875 -5.875 C 6.972656 -5.5625 7.441406 -5.15625 7.828125 -4.65625 C 8.222656 -4.15625 8.421875 -3.59375 8.421875 -2.96875 C 8.421875 -2.039062 8.046875 -1.265625 7.296875 -0.640625 C 6.546875 -0.015625 5.523438 0.296875 4.234375 0.296875 C 2.941406 0.296875 1.765625 0 0.703125 -0.59375 L 0.703125 -1.546875 C 1.835938 -0.984375 2.863281 -0.703125 3.78125 -0.703125 C 4.695312 -0.703125 5.363281 -0.882812 5.78125 -1.25 C 6.195312 -1.613281 6.40625 -2.03125 6.40625 -2.5 C 6.40625 -2.976562 6.21875 -3.40625 5.84375 -3.78125 C 5.46875 -4.15625 5.007812 -4.484375 4.46875 -4.765625 C 3.925781 -5.054688 3.382812 -5.359375 2.84375 -5.671875 C 2.3125 -5.992188 1.859375 -6.40625 1.484375 -6.90625 C 1.109375 -7.40625 0.921875 -8.007812 0.921875 -8.71875 C 0.921875 -9.425781 1.207031 -10.082031 1.78125 -10.6875 C 2.363281 -11.289062 3.253906 -11.59375 4.453125 -11.59375 C 5.648438 -11.59375 6.800781 -11.378906 7.90625 -10.953125 L 7.65625 -9.296875 C 6.414062 -9.960938 5.269531 -10.378906 4.21875 -10.546875 Z M 4.21875 -10.546875 "/></g></g></g><g fill="#fccc54" fill-opacity="1"><g transform="translate(174.463193, 260.825623)"><g><path d="M 14.703125 -11.59375 C 16.671875 -11.59375 17.65625 -10.101562 17.65625 -7.125 L 17.65625 0 L 15.546875 0 L 15.546875 -7.328125 C 15.546875 -8.722656 15.28125 -9.570312 14.75 -9.875 C 14.476562 -10.019531 14.101562 -10.09375 13.625 -10.09375 C 13.15625 -10.09375 12.648438 -9.945312 12.109375 -9.65625 C 11.566406 -9.363281 11.171875 -9.035156 10.921875 -8.671875 L 10.921875 0 L 8.796875 0 L 8.796875 -7.453125 C 8.796875 -8.335938 8.660156 -9 8.390625 -9.4375 C 8.128906 -9.875 7.738281 -10.09375 7.21875 -10.09375 C 6.707031 -10.09375 6.210938 -9.976562 5.734375 -9.75 C 5.265625 -9.519531 4.882812 -9.285156 4.59375 -9.046875 C 4.3125 -8.816406 4.171875 -8.675781 4.171875 -8.625 L 4.171875 0 L 2.078125 0 L 2.078125 -7.84375 C 2.078125 -8.976562 1.648438 -9.890625 0.796875 -10.578125 L 2.078125 -11.53125 L 4.078125 -9.703125 C 4.859375 -10.347656 5.539062 -10.820312 6.125 -11.125 C 6.707031 -11.4375 7.316406 -11.59375 7.953125 -11.59375 C 9.398438 -11.59375 10.300781 -10.921875 10.65625 -9.578125 C 11.238281 -10.242188 11.90625 -10.742188 12.65625 -11.078125 C 13.40625 -11.421875 14.085938 -11.59375 14.703125 -11.59375 Z M 14.703125 -11.59375 "/></g></g></g><g fill="#fccc54" fill-opacity="1"><g transform="translate(193.910115, 260.825623)"><g><path d="M 2.625 -6.15625 C 2.625 -4.351562 3.023438 -3.054688 3.828125 -2.265625 C 4.640625 -1.472656 5.625 -1.078125 6.78125 -1.078125 C 7.945312 -1.078125 9.019531 -1.300781 10 -1.75 L 10 -0.875 C 8.632812 -0.09375 7.328125 0.296875 6.078125 0.296875 C 4.460938 0.296875 3.15625 -0.191406 2.15625 -1.171875 C 1.15625 -2.160156 0.65625 -3.585938 0.65625 -5.453125 C 0.65625 -7.316406 1.207031 -8.804688 2.3125 -9.921875 C 3.414062 -11.035156 4.753906 -11.59375 6.328125 -11.59375 C 7.546875 -11.59375 8.5625 -11.113281 9.375 -10.15625 C 10.1875 -9.195312 10.59375 -7.863281 10.59375 -6.15625 Z M 5.046875 -10.421875 C 4.460938 -10.140625 3.960938 -9.6875 3.546875 -9.0625 C 3.128906 -8.4375 2.851562 -7.71875 2.71875 -6.90625 L 8.578125 -6.90625 C 8.523438 -7.601562 8.359375 -8.203125 8.078125 -8.703125 C 7.804688 -9.203125 7.476562 -9.566406 7.09375 -9.796875 C 6.414062 -10.210938 5.734375 -10.421875 5.046875 -10.421875 Z M 5.046875 -10.421875 "/></g></g></g><g fill="#fccc54" fill-opacity="1"><g transform="translate(205.633258, 260.825623)"><g><path d="M 4.375 -2.203125 C 4.375 -1.703125 4.472656 -1.328125 4.671875 -1.078125 C 4.867188 -0.828125 5.203125 -0.703125 5.671875 -0.703125 C 6.140625 -0.703125 6.695312 -0.828125 7.34375 -1.078125 L 7.34375 -0.375 C 6.382812 0.0703125 5.519531 0.296875 4.75 0.296875 C 3.976562 0.296875 3.375 0.0859375 2.9375 -0.328125 C 2.5 -0.753906 2.28125 -1.421875 2.28125 -2.328125 L 2.28125 -10.40625 L 0.25 -10.796875 L 0.25 -11.296875 L 2.28125 -11.296875 L 2.28125 -12.203125 L 4.375 -13.71875 L 4.375 -11.296875 L 7.34375 -11.296875 L 7.34375 -10.40625 L 4.375 -10.40625 Z M 4.375 -2.203125 "/></g></g></g><g fill="#fccc54" fill-opacity="1"><g transform="translate(213.856959, 260.825623)"><g><path d="M 1.875 0 L 1.875 -11.296875 L 3.953125 -11.296875 L 3.953125 0 Z M 1.625 -14.78125 C 1.625 -15.144531 1.742188 -15.453125 1.984375 -15.703125 C 2.222656 -15.953125 2.519531 -16.078125 2.875 -16.078125 C 3.238281 -16.078125 3.550781 -15.953125 3.8125 -15.703125 C 4.070312 -15.453125 4.203125 -15.148438 4.203125 -14.796875 C 4.203125 -14.453125 4.070312 -14.144531 3.8125 -13.875 C 3.550781 -13.601562 3.242188 -13.46875 2.890625 -13.46875 C 2.546875 -13.46875 2.25 -13.597656 2 -13.859375 C 1.75 -14.117188 1.625 -14.425781 1.625 -14.78125 Z M 1.625 -14.78125 "/></g></g></g><g fill="#fccc54" fill-opacity="1"><g transform="translate(219.68104, 260.825623)"><g><path d="M 5.703125 0.296875 C 4.253906 0.296875 3.050781 -0.195312 2.09375 -1.1875 C 1.132812 -2.175781 0.65625 -3.578125 0.65625 -5.390625 C 0.65625 -7.210938 1.164062 -8.703125 2.1875 -9.859375 C 3.207031 -11.015625 4.507812 -11.59375 6.09375 -11.59375 C 6.976562 -11.59375 7.972656 -11.378906 9.078125 -10.953125 L 8.828125 -9.296875 C 7.359375 -10.066406 6.097656 -10.453125 5.046875 -10.453125 C 4.179688 -10.015625 3.554688 -9.3125 3.171875 -8.34375 C 2.785156 -7.382812 2.59375 -6.4375 2.59375 -5.5 C 2.59375 -4.226562 2.960938 -3.171875 3.703125 -2.328125 C 4.453125 -1.492188 5.34375 -1.078125 6.375 -1.078125 C 7.40625 -1.078125 8.351562 -1.300781 9.21875 -1.75 L 9.21875 -0.875 C 8.019531 -0.09375 6.847656 0.296875 5.703125 0.296875 Z M 5.703125 0.296875 "/></g></g></g><g fill="#fccc54" fill-opacity="1"><g transform="translate(229.829432, 260.825623)"><g><path d="M 4.21875 -10.546875 C 3.789062 -10.546875 3.4375 -10.382812 3.15625 -10.0625 C 2.882812 -9.738281 2.75 -9.367188 2.75 -8.953125 C 2.75 -8.546875 2.941406 -8.15625 3.328125 -7.78125 C 3.722656 -7.40625 4.195312 -7.070312 4.75 -6.78125 C 5.3125 -6.488281 5.867188 -6.1875 6.421875 -5.875 C 6.972656 -5.5625 7.441406 -5.15625 7.828125 -4.65625 C 8.222656 -4.15625 8.421875 -3.59375 8.421875 -2.96875 C 8.421875 -2.039062 8.046875 -1.265625 7.296875 -0.640625 C 6.546875 -0.015625 5.523438 0.296875 4.234375 0.296875 C 2.941406 0.296875 1.765625 0 0.703125 -0.59375 L 0.703125 -1.546875 C 1.835938 -0.984375 2.863281 -0.703125 3.78125 -0.703125 C 4.695312 -0.703125 5.363281 -0.882812 5.78125 -1.25 C 6.195312 -1.613281 6.40625 -2.03125 6.40625 -2.5 C 6.40625 -2.976562 6.21875 -3.40625 5.84375 -3.78125 C 5.46875 -4.15625 5.007812 -4.484375 4.46875 -4.765625 C 3.925781 -5.054688 3.382812 -5.359375 2.84375 -5.671875 C 2.3125 -5.992188 1.859375 -6.40625 1.484375 -6.90625 C 1.109375 -7.40625 0.921875 -8.007812 0.921875 -8.71875 C 0.921875 -9.425781 1.207031 -10.082031 1.78125 -10.6875 C 2.363281 -11.289062 3.253906 -11.59375 4.453125 -11.59375 C 5.648438 -11.59375 6.800781 -11.378906 7.90625 -10.953125 L 7.65625 -9.296875 C 6.414062 -9.960938 5.269531 -10.378906 4.21875 -10.546875 Z M 4.21875 -10.546875 "/></g></g></g></svg>