<svg xmlns="http://www.w3.org/2000/svg" xmlns:xlink="http://www.w3.org/1999/xlink" width="500" zoomAndPan="magnify" viewBox="0 0 375 374.999991" height="500" preserveAspectRatio="xMidYMid meet" version="1.0"><defs><clipPath id="4ac7660eac"><path d="M 0 118 L 375 118 L 375 317.261719 L 0 317.261719 Z M 0 118 " clip-rule="nonzero"/></clipPath><clipPath id="a14611df2a"><path d="M 0 91 L 375 91 L 375 317.261719 L 0 317.261719 Z M 0 91 " clip-rule="nonzero"/></clipPath><clipPath id="670507387d"><path d="M 99 25.511719 L 276 25.511719 L 276 317.261719 L 99 317.261719 Z M 99 25.511719 " clip-rule="nonzero"/></clipPath></defs><g clip-path="url(#4ac7660eac)"><path fill="#060606" d="M 187.621094 317.261719 C 187.621094 317.261719 187.5 317.261719 187.5 317.261719 C 187.5 317.261719 187.378906 317.261719 187.378906 317.261719 C 2.199219 317.019531 0.503906 118.808594 0.503906 118.808594 C 0.503906 118.808594 69.734375 111.183594 111.371094 150.390625 L 187.5 316.898438 L 263.628906 150.390625 C 305.265625 111.0625 374.496094 118.808594 374.496094 118.808594 C 374.496094 118.808594 372.800781 317.019531 187.621094 317.261719 Z M 187.621094 317.261719 " fill-opacity="1" fill-rule="nonzero"/></g><g clip-path="url(#a14611df2a)"><path stroke-linecap="butt" transform="matrix(1.210322, 0, 0, 1.210079, 0.505286, 25.511717)" fill="none" stroke-linejoin="miter" d="M 88.198551 131.499711 L 118.501058 226.39927 C 117.300447 225.898915 66.50042 206.601359 41.900814 160.300781 C 30.101265 138.001096 27.399891 113.900133 24.798568 97.001051 C 42.801272 98.69903 71.599788 109.500238 88.198551 131.499711 Z M 220.801468 132.000066 L 190.498962 226.799554 C 191.699572 226.299199 243.400057 205.600649 267.099206 161.101349 C 278.898755 138.898506 281.600128 114.900842 284.201451 97.998533 C 266.198748 99.599668 237.400232 110.100664 220.801468 132.000066 Z M 220.801468 132.000066 " stroke="#fccc54" stroke-width="3" stroke-opacity="1" stroke-miterlimit="10"/></g><g clip-path="url(#670507387d)"><path fill="#060606" d="M 275.972656 210.773438 C 275.972656 285.316406 236.398438 317.140625 187.5 317.140625 C 138.601562 317.140625 99.027344 285.316406 99.027344 210.773438 C 99.148438 124.132812 187.621094 25.511719 187.621094 25.511719 C 187.621094 25.511719 275.972656 124.132812 275.972656 210.773438 Z M 275.972656 210.773438 " fill-opacity="1" fill-rule="nonzero"/></g><path fill="#fccc54" d="M 247.894531 233.28125 C 247.894531 270.671875 237.726562 297.902344 219.574219 311.816406 C 214.851562 313.511719 210.011719 314.71875 205.050781 315.566406 C 213.886719 312.421875 221.511719 306.734375 227.5625 298.625 C 238.695312 283.742188 244.265625 261.839844 244.265625 233.28125 C 244.265625 172.535156 196.699219 100.292969 187.621094 87.105469 C 178.542969 100.292969 130.976562 172.535156 130.976562 233.28125 C 130.976562 261.71875 136.667969 283.742188 147.679688 298.625 C 153.730469 306.734375 161.355469 312.421875 170.191406 315.566406 C 165.109375 314.71875 160.269531 313.390625 155.667969 311.816406 C 137.515625 298.019531 127.347656 270.671875 127.347656 233.28125 C 127.347656 165.277344 185.5625 83.59375 186.167969 82.871094 L 187.621094 80.8125 L 189.074219 82.871094 C 189.679688 83.714844 247.894531 165.277344 247.894531 233.28125 Z M 247.894531 233.28125 " fill-opacity="1" fill-rule="nonzero"/></svg>