<svg xmlns="http://www.w3.org/2000/svg" xmlns:xlink="http://www.w3.org/1999/xlink" width="500" zoomAndPan="magnify" viewBox="0 0 375 374.999991" height="500" preserveAspectRatio="xMidYMid meet" version="1.0"><defs><g/></defs><g fill="#060606" fill-opacity="1"><g transform="translate(16.999463, 217.462788)"><g><path d="M 41.84375 -86.140625 C 39.625 -86.140625 37.550781 -84.988281 35.625 -82.6875 C 33.695312 -80.394531 32.015625 -77.28125 30.578125 -73.34375 C 29.140625 -69.40625 28.007812 -64.832031 27.1875 -59.625 C 26.375 -54.414062 25.96875 -48.898438 25.96875 -43.078125 C 25.96875 -37.242188 26.375 -31.722656 27.1875 -26.515625 C 28.007812 -21.304688 29.140625 -16.734375 30.578125 -12.796875 C 32.015625 -8.859375 33.695312 -5.738281 35.625 -3.4375 C 37.550781 -1.144531 39.625 0 41.84375 0 C 36.507812 0 31.484375 -1.125 26.765625 -3.375 C 22.046875 -5.632812 17.921875 -8.710938 14.390625 -12.609375 C 10.867188 -16.503906 8.101562 -21.078125 6.09375 -26.328125 C 4.082031 -31.585938 3.078125 -37.171875 3.078125 -43.078125 C 3.078125 -48.984375 4.082031 -54.5625 6.09375 -59.8125 C 8.101562 -65.0625 10.867188 -69.632812 14.390625 -73.53125 C 17.921875 -77.425781 22.046875 -80.5 26.765625 -82.75 C 31.484375 -85.007812 36.507812 -86.140625 41.84375 -86.140625 Z M 55.625 -78.390625 C 55.625 -79.617188 55.273438 -80.679688 54.578125 -81.578125 C 53.878906 -82.484375 52.992188 -83.242188 51.921875 -83.859375 C 50.859375 -84.484375 49.691406 -84.957031 48.421875 -85.28125 C 47.148438 -85.613281 45.941406 -85.859375 44.796875 -86.015625 C 47.742188 -85.773438 50.613281 -85.179688 53.40625 -84.234375 C 56.195312 -83.296875 58.78125 -82.109375 61.15625 -80.671875 C 63.539062 -79.234375 65.65625 -77.609375 67.5 -75.796875 C 69.34375 -73.992188 70.878906 -72.148438 72.109375 -70.265625 C 72.929688 -68.867188 73.566406 -67.492188 74.015625 -66.140625 C 74.472656 -64.785156 74.703125 -63.453125 74.703125 -62.140625 C 74.703125 -60.335938 74.351562 -58.632812 73.65625 -57.03125 C 72.957031 -55.4375 72.007812 -54.046875 70.8125 -52.859375 C 69.625 -51.671875 68.226562 -50.726562 66.625 -50.03125 C 65.03125 -49.332031 63.332031 -48.984375 61.53125 -48.984375 C 59.726562 -48.984375 58.023438 -49.332031 56.421875 -50.03125 C 54.828125 -50.726562 53.429688 -51.671875 52.234375 -52.859375 C 51.046875 -54.046875 50.101562 -55.4375 49.40625 -57.03125 C 48.707031 -58.632812 48.359375 -60.335938 48.359375 -62.140625 C 48.359375 -63.867188 48.664062 -65.507812 49.28125 -67.0625 C 49.894531 -68.625 50.78125 -70.019531 51.9375 -71.25 C 53.082031 -72.394531 53.984375 -73.582031 54.640625 -74.8125 C 55.296875 -76.050781 55.625 -77.242188 55.625 -78.390625 Z M 82.078125 -33.71875 C 80.023438 -33.71875 78.28125 -32.875 76.84375 -31.1875 C 75.414062 -29.507812 74.703125 -27.644531 74.703125 -25.59375 L 74.703125 0 C 73.222656 -0.90625 71.617188 -1.644531 69.890625 -2.21875 C 68.171875 -2.789062 66.164062 -3.078125 63.875 -3.078125 C 61.90625 -3.078125 60.117188 -2.953125 58.515625 -2.703125 C 56.910156 -2.460938 55.367188 -2.175781 53.890625 -1.84375 C 52.421875 -1.519531 50.945312 -1.191406 49.46875 -0.859375 C 47.988281 -0.535156 46.429688 -0.289062 44.796875 -0.125 C 46.191406 -0.289062 47.625 -0.679688 49.09375 -1.296875 C 50.570312 -1.910156 51.890625 -2.585938 53.046875 -3.328125 L 53.046875 -25.59375 C 53.046875 -27.644531 52.328125 -29.507812 50.890625 -31.1875 C 49.453125 -32.875 47.664062 -33.71875 45.53125 -33.71875 Z M 82.078125 -33.71875 "/></g></g></g><g fill="#060606" fill-opacity="1"><g transform="translate(102.158112, 217.462788)"><g><path d="M 33.34375 0 C 36.875 0 40.257812 -0.59375 43.5 -1.78125 C 46.738281 -2.96875 49.671875 -4.609375 52.296875 -6.703125 C 54.921875 -8.796875 57.195312 -11.257812 59.125 -14.09375 C 61.0625 -16.925781 62.4375 -19.941406 63.25 -23.140625 L 63.25 0 Z M 39.625 -86.140625 C 37.488281 -86.140625 35.703125 -85.296875 34.265625 -83.609375 C 32.835938 -81.929688 32.125 -80.066406 32.125 -78.015625 L 32.125 0 L 3.078125 0 C 5.128906 0 6.867188 -0.835938 8.296875 -2.515625 C 9.734375 -4.203125 10.453125 -6.070312 10.453125 -8.125 L 10.453125 -78.015625 C 10.453125 -80.066406 9.734375 -81.929688 8.296875 -83.609375 C 6.867188 -85.296875 5.128906 -86.140625 3.078125 -86.140625 Z M 39.625 -86.140625 "/></g></g></g><g fill="#060606" fill-opacity="1"><g transform="translate(168.488335, 217.462788)"><g><path d="M 19.6875 -13.65625 C 19.6875 -11.769531 20.035156 -9.984375 20.734375 -8.296875 C 21.429688 -6.617188 22.394531 -5.164062 23.625 -3.9375 C 24.851562 -2.707031 26.285156 -1.742188 27.921875 -1.046875 C 29.566406 -0.347656 31.335938 0 33.234375 0 L 3.078125 0 C 4.878906 -0.25 6.617188 -0.820312 8.296875 -1.71875 C 9.984375 -2.625 11.566406 -3.753906 13.046875 -5.109375 C 14.523438 -6.460938 15.835938 -7.957031 16.984375 -9.59375 C 18.128906 -11.238281 19.03125 -12.921875 19.6875 -14.640625 Z M 43.3125 0 C 45.039062 0 46.519531 -0.71875 47.75 -2.15625 C 48.976562 -3.59375 49.59375 -5.210938 49.59375 -7.015625 C 49.59375 -7.335938 49.59375 -7.660156 49.59375 -7.984375 C 49.59375 -8.316406 49.507812 -8.648438 49.34375 -8.984375 L 45.78125 -19.328125 L 45.53125 -20.0625 L 36.796875 -45.28125 C 36.222656 -46.675781 35.195312 -47.375 33.71875 -47.375 C 32.320312 -47.375 31.335938 -46.675781 30.765625 -45.28125 L 45.53125 -86.140625 L 59.1875 -46.890625 C 59.757812 -45.242188 60.414062 -43.289062 61.15625 -41.03125 C 61.894531 -38.78125 62.550781 -36.835938 63.125 -35.203125 L 73.21875 -6.40625 C 73.789062 -4.757812 74.796875 -3.28125 76.234375 -1.96875 C 77.671875 -0.65625 79.332031 0 81.21875 0 Z M 43.3125 0 "/></g></g></g><g fill="#060606" fill-opacity="1"><g transform="translate(252.785548, 217.462788)"><g><path d="M 17.96875 -15.5 C 17.96875 -13.53125 18.359375 -11.601562 19.140625 -9.71875 C 19.921875 -7.832031 20.984375 -6.171875 22.328125 -4.734375 C 23.679688 -3.296875 25.257812 -2.144531 27.0625 -1.28125 C 28.875 -0.425781 30.765625 0 32.734375 0 L 3.078125 0 C 5.046875 0 6.929688 -0.425781 8.734375 -1.28125 C 10.535156 -2.144531 12.113281 -3.296875 13.46875 -4.734375 C 14.820312 -6.171875 15.910156 -7.832031 16.734375 -9.71875 C 17.554688 -11.601562 17.96875 -13.53125 17.96875 -15.5 Z M 57.09375 -40 C 58.65625 -40 59.722656 -40.773438 60.296875 -42.328125 L 59.0625 -38.765625 L 45.53125 0 L 24.125 -61.90625 C 23.550781 -63.375 22.484375 -64.109375 20.921875 -64.109375 C 20.015625 -64.109375 19.234375 -63.78125 18.578125 -63.125 C 17.921875 -62.46875 17.59375 -61.691406 17.59375 -60.796875 L 17.59375 -78.015625 C 17.59375 -80.066406 16.8125 -81.929688 15.25 -83.609375 C 13.695312 -85.296875 11.894531 -86.140625 9.84375 -86.140625 L 38.640625 -86.140625 L 51.8125 -48.359375 L 53.90625 -42.328125 C 54.0625 -41.671875 54.445312 -41.117188 55.0625 -40.671875 C 55.6875 -40.222656 56.363281 -40 57.09375 -40 Z M 102.140625 -86.140625 C 100.085938 -86.140625 98.34375 -85.296875 96.90625 -83.609375 C 95.476562 -81.929688 94.765625 -80.066406 94.765625 -78.015625 L 94.765625 -8.125 C 94.765625 -6.070312 95.476562 -4.203125 96.90625 -2.515625 C 98.34375 -0.835938 100.085938 0 102.140625 0 L 65.59375 0 C 67.726562 0 69.507812 -0.835938 70.9375 -2.515625 C 72.375 -4.203125 73.09375 -6.070312 73.09375 -8.125 L 73.09375 -61.40625 C 73.09375 -62.3125 72.742188 -63.113281 72.046875 -63.8125 C 71.347656 -64.507812 70.550781 -64.859375 69.65625 -64.859375 C 68.09375 -64.859375 67.023438 -64.078125 66.453125 -62.515625 L 68.546875 -68.671875 L 74.453125 -86.140625 Z M 102.140625 -86.140625 "/></g></g></g><g fill="#fccc54" fill-opacity="1"><g transform="translate(174.188622, 249.683324)"><g><path d="M 17.140625 0.515625 C 12.648438 0.515625 8.875 -0.695312 5.8125 -3.125 C 2.75 -5.550781 1.21875 -9.035156 1.21875 -13.578125 C 1.21875 -16.234375 1.722656 -18.601562 2.734375 -20.6875 C 3.742188 -22.769531 5.070312 -24.40625 6.71875 -25.59375 C 10.050781 -28.019531 13.78125 -29.234375 17.90625 -29.234375 C 20.3125 -29.234375 22.816406 -28.800781 25.421875 -27.9375 L 24.984375 -24.984375 C 23.628906 -25.554688 22.570312 -25.988281 21.8125 -26.28125 C 19.644531 -27.0625 17.460938 -27.453125 15.265625 -27.453125 C 12.234375 -26.765625 9.898438 -25.257812 8.265625 -22.9375 C 6.628906 -20.625 5.8125 -17.734375 5.8125 -14.265625 C 5.8125 -10.015625 6.921875 -6.738281 9.140625 -4.4375 C 11.367188 -2.144531 14.304688 -1 17.953125 -1 C 21.597656 -1 24.316406 -1.78125 26.109375 -3.34375 L 26.109375 -0.953125 C 23.617188 0.0234375 20.628906 0.515625 17.140625 0.515625 Z M 17.140625 0.515625 "/></g></g></g><g fill="#fccc54" fill-opacity="1"><g transform="translate(201.595847, 249.683324)"><g><path d="M 11.625 -20.125 C 14.164062 -20.125 16.265625 -19.253906 17.921875 -17.515625 C 19.585938 -15.785156 20.421875 -13.398438 20.421875 -10.359375 C 20.421875 -8.421875 20.085938 -6.710938 19.421875 -5.234375 C 18.765625 -3.765625 17.898438 -2.628906 16.828125 -1.828125 C 14.773438 -0.265625 12.484375 0.515625 9.953125 0.515625 C 7.421875 0.515625 5.320312 -0.347656 3.65625 -2.078125 C 2 -3.816406 1.171875 -6.203125 1.171875 -9.234375 C 1.171875 -11.171875 1.492188 -12.875 2.140625 -14.34375 C 2.796875 -15.820312 3.660156 -16.96875 4.734375 -17.78125 C 6.785156 -19.34375 9.082031 -20.125 11.625 -20.125 Z M 10.75 -0.953125 C 12.03125 -0.953125 13.117188 -1.441406 14.015625 -2.421875 C 15.628906 -4.160156 16.4375 -6.46875 16.4375 -9.34375 C 16.4375 -12.21875 15.941406 -14.457031 14.953125 -16.0625 C 13.972656 -17.675781 12.375 -18.484375 10.15625 -18.484375 C 8.5 -17.847656 7.242188 -16.722656 6.390625 -15.109375 C 5.546875 -13.503906 5.125 -11.566406 5.125 -9.296875 C 5.125 -7.035156 5.582031 -5.078125 6.5 -3.421875 C 7.425781 -1.773438 8.84375 -0.953125 10.75 -0.953125 Z M 10.75 -0.953125 "/></g></g></g><g fill="#fccc54" fill-opacity="1"><g transform="translate(223.278769, 249.683324)"><g><path d="M 7.328125 -18.296875 C 6.578125 -18.296875 5.960938 -18.015625 5.484375 -17.453125 C 5.003906 -16.890625 4.765625 -16.253906 4.765625 -15.546875 C 4.765625 -14.835938 5.101562 -14.15625 5.78125 -13.5 C 6.46875 -12.851562 7.296875 -12.273438 8.265625 -11.765625 C 9.234375 -11.265625 10.191406 -10.738281 11.140625 -10.1875 C 12.097656 -9.644531 12.914062 -8.9375 13.59375 -8.0625 C 14.28125 -7.195312 14.625 -6.226562 14.625 -5.15625 C 14.625 -3.539062 13.972656 -2.191406 12.671875 -1.109375 C 11.367188 -0.0234375 9.59375 0.515625 7.34375 0.515625 C 5.101562 0.515625 3.0625 -0.00390625 1.21875 -1.046875 L 1.21875 -2.6875 C 3.175781 -1.707031 4.953125 -1.21875 6.546875 -1.21875 C 8.140625 -1.21875 9.296875 -1.535156 10.015625 -2.171875 C 10.742188 -2.804688 11.109375 -3.535156 11.109375 -4.359375 C 11.109375 -5.179688 10.78125 -5.914062 10.125 -6.5625 C 9.476562 -7.21875 8.679688 -7.789062 7.734375 -8.28125 C 6.796875 -8.769531 5.863281 -9.289062 4.9375 -9.84375 C 4.019531 -10.394531 3.234375 -11.101562 2.578125 -11.96875 C 1.929688 -12.832031 1.609375 -13.878906 1.609375 -15.109375 C 1.609375 -16.335938 2.101562 -17.476562 3.09375 -18.53125 C 4.09375 -19.59375 5.632812 -20.125 7.71875 -20.125 C 9.800781 -20.125 11.796875 -19.75 13.703125 -19 L 13.265625 -16.140625 C 11.128906 -17.296875 9.148438 -18.015625 7.328125 -18.296875 Z M 7.328125 -18.296875 "/></g></g></g><g fill="#fccc54" fill-opacity="1"><g transform="translate(239.410863, 249.683324)"><g><path d="M 25.5 -20.125 C 28.914062 -20.125 30.625 -17.535156 30.625 -12.359375 L 30.625 0 L 26.984375 0 L 26.984375 -12.703125 C 26.984375 -15.140625 26.519531 -16.617188 25.59375 -17.140625 C 25.125 -17.398438 24.476562 -17.53125 23.65625 -17.53125 C 22.832031 -17.53125 21.953125 -17.273438 21.015625 -16.765625 C 20.078125 -16.253906 19.390625 -15.679688 18.953125 -15.046875 L 18.953125 0 L 15.265625 0 L 15.265625 -12.921875 C 15.265625 -14.453125 15.03125 -15.601562 14.5625 -16.375 C 14.101562 -17.144531 13.425781 -17.53125 12.53125 -17.53125 C 11.632812 -17.53125 10.773438 -17.328125 9.953125 -16.921875 C 9.128906 -16.515625 8.472656 -16.109375 7.984375 -15.703125 C 7.492188 -15.296875 7.25 -15.050781 7.25 -14.96875 L 7.25 0 L 3.59375 0 L 3.59375 -13.625 C 3.59375 -15.582031 2.859375 -17.15625 1.390625 -18.34375 L 3.59375 -20 L 7.0625 -16.828125 C 8.425781 -17.953125 9.613281 -18.78125 10.625 -19.3125 C 11.632812 -19.851562 12.691406 -20.125 13.796875 -20.125 C 16.304688 -20.125 17.867188 -18.953125 18.484375 -16.609375 C 19.492188 -17.765625 20.648438 -18.640625 21.953125 -19.234375 C 23.253906 -19.828125 24.4375 -20.125 25.5 -20.125 Z M 25.5 -20.125 "/></g></g></g><g fill="#fccc54" fill-opacity="1"><g transform="translate(273.149494, 249.683324)"><g><path d="M 4.546875 -10.671875 C 4.546875 -7.546875 5.25 -5.296875 6.65625 -3.921875 C 8.0625 -2.546875 9.769531 -1.859375 11.78125 -1.859375 C 13.789062 -1.859375 15.644531 -2.25 17.34375 -3.03125 L 17.34375 -1.515625 C 14.976562 -0.160156 12.710938 0.515625 10.546875 0.515625 C 7.734375 0.515625 5.457031 -0.332031 3.71875 -2.03125 C 1.988281 -3.738281 1.125 -6.210938 1.125 -9.453125 C 1.125 -12.691406 2.082031 -15.28125 4 -17.21875 C 5.925781 -19.15625 8.25 -20.125 10.96875 -20.125 C 13.082031 -20.125 14.847656 -19.289062 16.265625 -17.625 C 17.679688 -15.96875 18.390625 -13.648438 18.390625 -10.671875 Z M 8.765625 -18.09375 C 7.753906 -17.59375 6.882812 -16.800781 6.15625 -15.71875 C 5.4375 -14.632812 4.960938 -13.382812 4.734375 -11.96875 L 14.875 -11.96875 C 14.789062 -13.1875 14.507812 -14.226562 14.03125 -15.09375 C 13.550781 -15.957031 12.976562 -16.59375 12.3125 -17 C 11.132812 -17.726562 9.953125 -18.09375 8.765625 -18.09375 Z M 8.765625 -18.09375 "/></g></g></g><g fill="#fccc54" fill-opacity="1"><g transform="translate(293.488078, 249.683324)"><g><path d="M 7.59375 -3.8125 C 7.59375 -2.945312 7.765625 -2.296875 8.109375 -1.859375 C 8.453125 -1.429688 9.03125 -1.21875 9.84375 -1.21875 C 10.65625 -1.21875 11.625 -1.429688 12.75 -1.859375 L 12.75 -0.65625 C 11.070312 0.125 9.566406 0.515625 8.234375 0.515625 C 6.910156 0.515625 5.863281 0.148438 5.09375 -0.578125 C 4.332031 -1.316406 3.953125 -2.46875 3.953125 -4.03125 L 3.953125 -18.046875 L 0.4375 -18.734375 L 0.4375 -19.609375 L 3.953125 -19.609375 L 3.953125 -21.171875 L 7.59375 -23.8125 L 7.59375 -19.609375 L 12.75 -19.609375 L 12.75 -18.046875 L 7.59375 -18.046875 Z M 7.59375 -3.8125 "/></g></g></g><g fill="#fccc54" fill-opacity="1"><g transform="translate(307.755439, 249.683324)"><g><path d="M 3.25 0 L 3.25 -19.609375 L 6.859375 -19.609375 L 6.859375 0 Z M 2.8125 -25.65625 C 2.8125 -26.28125 3.019531 -26.804688 3.4375 -27.234375 C 3.863281 -27.671875 4.382812 -27.890625 5 -27.890625 C 5.625 -27.890625 6.160156 -27.671875 6.609375 -27.234375 C 7.054688 -26.804688 7.28125 -26.285156 7.28125 -25.671875 C 7.28125 -25.066406 7.054688 -24.53125 6.609375 -24.0625 C 6.160156 -23.601562 5.632812 -23.375 5.03125 -23.375 C 4.425781 -23.375 3.90625 -23.597656 3.46875 -24.046875 C 3.03125 -24.492188 2.8125 -25.03125 2.8125 -25.65625 Z M 2.8125 -25.65625 "/></g></g></g><g fill="#fccc54" fill-opacity="1"><g transform="translate(317.859678, 249.683324)"><g><path d="M 9.890625 0.515625 C 7.367188 0.515625 5.273438 -0.34375 3.609375 -2.0625 C 1.953125 -3.78125 1.125 -6.210938 1.125 -9.359375 C 1.125 -12.515625 2.015625 -15.097656 3.796875 -17.109375 C 5.578125 -19.117188 7.835938 -20.125 10.578125 -20.125 C 12.109375 -20.125 13.832031 -19.75 15.75 -19 L 15.3125 -16.140625 C 12.769531 -17.460938 10.585938 -18.125 8.765625 -18.125 C 7.253906 -17.375 6.164062 -16.160156 5.5 -14.484375 C 4.84375 -12.804688 4.515625 -11.160156 4.515625 -9.546875 C 4.515625 -7.347656 5.15625 -5.515625 6.4375 -4.046875 C 7.726562 -2.585938 9.269531 -1.859375 11.0625 -1.859375 C 12.851562 -1.859375 14.5 -2.25 16 -3.03125 L 16 -1.515625 C 13.914062 -0.160156 11.878906 0.515625 9.890625 0.515625 Z M 9.890625 0.515625 "/></g></g></g><g fill="#fccc54" fill-opacity="1"><g transform="translate(335.466216, 249.683324)"><g><path d="M 7.328125 -18.296875 C 6.578125 -18.296875 5.960938 -18.015625 5.484375 -17.453125 C 5.003906 -16.890625 4.765625 -16.253906 4.765625 -15.546875 C 4.765625 -14.835938 5.101562 -14.15625 5.78125 -13.5 C 6.46875 -12.851562 7.296875 -12.273438 8.265625 -11.765625 C 9.234375 -11.265625 10.191406 -10.738281 11.140625 -10.1875 C 12.097656 -9.644531 12.914062 -8.9375 13.59375 -8.0625 C 14.28125 -7.195312 14.625 -6.226562 14.625 -5.15625 C 14.625 -3.539062 13.972656 -2.191406 12.671875 -1.109375 C 11.367188 -0.0234375 9.59375 0.515625 7.34375 0.515625 C 5.101562 0.515625 3.0625 -0.00390625 1.21875 -1.046875 L 1.21875 -2.6875 C 3.175781 -1.707031 4.953125 -1.21875 6.546875 -1.21875 C 8.140625 -1.21875 9.296875 -1.535156 10.015625 -2.171875 C 10.742188 -2.804688 11.109375 -3.535156 11.109375 -4.359375 C 11.109375 -5.179688 10.78125 -5.914062 10.125 -6.5625 C 9.476562 -7.21875 8.679688 -7.789062 7.734375 -8.28125 C 6.796875 -8.769531 5.863281 -9.289062 4.9375 -9.84375 C 4.019531 -10.394531 3.234375 -11.101562 2.578125 -11.96875 C 1.929688 -12.832031 1.609375 -13.878906 1.609375 -15.109375 C 1.609375 -16.335938 2.101562 -17.476562 3.09375 -18.53125 C 4.09375 -19.59375 5.632812 -20.125 7.71875 -20.125 C 9.800781 -20.125 11.796875 -19.75 13.703125 -19 L 13.265625 -16.140625 C 11.128906 -17.296875 9.148438 -18.015625 7.328125 -18.296875 Z M 7.328125 -18.296875 "/></g></g></g></svg>