<svg xmlns="http://www.w3.org/2000/svg" xmlns:xlink="http://www.w3.org/1999/xlink" width="500" zoomAndPan="magnify" viewBox="0 0 375 374.999991" height="500" preserveAspectRatio="xMidYMid meet" version="1.0"><defs><g/></defs><g fill="#060606" fill-opacity="1"><g transform="translate(0.9279, 220.287079)"><g><path d="M 45.78125 -94.265625 C 43.363281 -94.265625 41.097656 -93.007812 38.984375 -90.5 C 36.878906 -87.988281 35.039062 -84.578125 33.46875 -80.265625 C 31.894531 -75.953125 30.660156 -70.945312 29.765625 -65.25 C 28.867188 -59.550781 28.421875 -53.515625 28.421875 -47.140625 C 28.421875 -40.765625 28.867188 -34.722656 29.765625 -29.015625 C 30.660156 -23.316406 31.894531 -18.3125 33.46875 -14 C 35.039062 -9.695312 36.878906 -6.285156 38.984375 -3.765625 C 41.097656 -1.253906 43.363281 0 45.78125 0 C 39.945312 0 34.445312 -1.234375 29.28125 -3.703125 C 24.125 -6.171875 19.613281 -9.535156 15.75 -13.796875 C 11.894531 -18.066406 8.863281 -23.070312 6.65625 -28.8125 C 4.457031 -34.5625 3.359375 -40.671875 3.359375 -47.140625 C 3.359375 -53.597656 4.457031 -59.695312 6.65625 -65.4375 C 8.863281 -71.1875 11.894531 -76.191406 15.75 -80.453125 C 19.613281 -84.722656 24.125 -88.09375 29.28125 -90.5625 C 34.445312 -93.03125 39.945312 -94.265625 45.78125 -94.265625 Z M 60.875 -85.78125 C 60.875 -87.132812 60.488281 -88.300781 59.71875 -89.28125 C 58.957031 -90.269531 57.992188 -91.097656 56.828125 -91.765625 C 55.660156 -92.441406 54.378906 -92.957031 52.984375 -93.3125 C 51.597656 -93.675781 50.273438 -93.953125 49.015625 -94.140625 C 52.253906 -93.867188 55.398438 -93.21875 58.453125 -92.1875 C 61.503906 -91.15625 64.332031 -89.851562 66.9375 -88.28125 C 69.539062 -86.707031 71.847656 -84.929688 73.859375 -82.953125 C 75.878906 -80.984375 77.566406 -78.960938 78.921875 -76.890625 C 79.816406 -75.367188 80.507812 -73.867188 81 -72.390625 C 81.5 -70.910156 81.75 -69.453125 81.75 -68.015625 C 81.75 -66.035156 81.363281 -64.171875 80.59375 -62.421875 C 79.832031 -60.671875 78.800781 -59.144531 77.5 -57.84375 C 76.195312 -56.539062 74.671875 -55.503906 72.921875 -54.734375 C 71.171875 -53.972656 69.3125 -53.59375 67.34375 -53.59375 C 65.363281 -53.59375 63.5 -53.972656 61.75 -54.734375 C 60 -55.503906 58.472656 -56.539062 57.171875 -57.84375 C 55.867188 -59.144531 54.832031 -60.671875 54.0625 -62.421875 C 53.300781 -64.171875 52.921875 -66.035156 52.921875 -68.015625 C 52.921875 -69.898438 53.257812 -71.691406 53.9375 -73.390625 C 54.613281 -75.097656 55.578125 -76.625 56.828125 -77.96875 C 58.085938 -79.226562 59.078125 -80.53125 59.796875 -81.875 C 60.515625 -83.226562 60.875 -84.53125 60.875 -85.78125 Z M 89.828125 -36.90625 C 87.578125 -36.90625 85.664062 -35.984375 84.09375 -34.140625 C 82.53125 -32.296875 81.75 -30.253906 81.75 -28.015625 L 81.75 0 C 80.132812 -0.988281 78.382812 -1.796875 76.5 -2.421875 C 74.613281 -3.046875 72.410156 -3.359375 69.890625 -3.359375 C 67.734375 -3.359375 65.78125 -3.222656 64.03125 -2.953125 C 62.28125 -2.691406 60.597656 -2.378906 58.984375 -2.015625 C 57.367188 -1.660156 55.753906 -1.300781 54.140625 -0.9375 C 52.523438 -0.582031 50.816406 -0.316406 49.015625 -0.140625 C 50.546875 -0.316406 52.117188 -0.738281 53.734375 -1.40625 C 55.347656 -2.082031 56.785156 -2.828125 58.046875 -3.640625 L 58.046875 -28.015625 C 58.046875 -30.253906 57.257812 -32.296875 55.6875 -34.140625 C 54.113281 -35.984375 52.160156 -36.90625 49.828125 -36.90625 Z M 89.828125 -36.90625 "/></g></g></g><g fill="#060606" fill-opacity="1"><g transform="translate(94.113691, 220.287079)"><g><path d="M 36.5 0 C 40.351562 0 44.050781 -0.648438 47.59375 -1.953125 C 51.144531 -3.253906 54.359375 -5.050781 57.234375 -7.34375 C 60.109375 -9.632812 62.597656 -12.328125 64.703125 -15.421875 C 66.816406 -18.515625 68.320312 -21.8125 69.21875 -25.3125 L 69.21875 0 Z M 43.359375 -94.265625 C 41.023438 -94.265625 39.070312 -93.34375 37.5 -91.5 C 35.9375 -89.664062 35.15625 -87.625 35.15625 -85.375 L 35.15625 0 L 3.359375 0 C 5.609375 0 7.519531 -0.914062 9.09375 -2.75 C 10.664062 -4.59375 11.453125 -6.640625 11.453125 -8.890625 L 11.453125 -85.375 C 11.453125 -87.625 10.664062 -89.664062 9.09375 -91.5 C 7.519531 -93.34375 5.609375 -94.265625 3.359375 -94.265625 Z M 43.359375 -94.265625 "/></g></g></g><g fill="#060606" fill-opacity="1"><g transform="translate(166.69627, 220.287079)"><g><path d="M 21.546875 -14.953125 C 21.546875 -12.878906 21.925781 -10.921875 22.6875 -9.078125 C 23.457031 -7.242188 24.515625 -5.65625 25.859375 -4.3125 C 27.203125 -2.96875 28.769531 -1.910156 30.5625 -1.140625 C 32.363281 -0.378906 34.296875 0 36.359375 0 L 3.359375 0 C 5.335938 -0.269531 7.242188 -0.894531 9.078125 -1.875 C 10.921875 -2.863281 12.648438 -4.097656 14.265625 -5.578125 C 15.890625 -7.066406 17.328125 -8.707031 18.578125 -10.5 C 19.835938 -12.300781 20.828125 -14.144531 21.546875 -16.03125 Z M 47.40625 0 C 49.289062 0 50.90625 -0.785156 52.25 -2.359375 C 53.59375 -3.929688 54.265625 -5.703125 54.265625 -7.671875 C 54.265625 -8.035156 54.265625 -8.394531 54.265625 -8.75 C 54.265625 -9.113281 54.175781 -9.472656 54 -9.828125 L 50.09375 -21.140625 L 49.828125 -21.953125 L 40.265625 -49.5625 C 39.640625 -51.082031 38.519531 -51.84375 36.90625 -51.84375 C 35.375 -51.84375 34.296875 -51.082031 33.671875 -49.5625 L 49.828125 -94.265625 L 64.78125 -51.3125 C 65.40625 -49.507812 66.117188 -47.375 66.921875 -44.90625 C 67.734375 -42.4375 68.457031 -40.304688 69.09375 -38.515625 L 80.125 -7 C 80.757812 -5.207031 81.859375 -3.59375 83.421875 -2.15625 C 84.992188 -0.71875 86.816406 0 88.890625 0 Z M 47.40625 0 "/></g></g></g><g fill="#060606" fill-opacity="1"><g transform="translate(258.939425, 220.287079)"><g><path d="M 19.65625 -16.96875 C 19.65625 -14.8125 20.082031 -12.703125 20.9375 -10.640625 C 21.789062 -8.578125 22.957031 -6.757812 24.4375 -5.1875 C 25.925781 -3.613281 27.65625 -2.351562 29.625 -1.40625 C 31.601562 -0.46875 33.671875 0 35.828125 0 L 3.359375 0 C 5.515625 0 7.582031 -0.46875 9.5625 -1.40625 C 11.539062 -2.351562 13.269531 -3.613281 14.75 -5.1875 C 16.226562 -6.757812 17.414062 -8.578125 18.3125 -10.640625 C 19.207031 -12.703125 19.65625 -14.8125 19.65625 -16.96875 Z M 62.484375 -43.765625 C 64.191406 -43.765625 65.359375 -44.617188 65.984375 -46.328125 L 64.640625 -42.421875 L 49.828125 0 L 26.390625 -67.734375 C 25.765625 -69.359375 24.597656 -70.171875 22.890625 -70.171875 C 21.898438 -70.171875 21.046875 -69.8125 20.328125 -69.09375 C 19.617188 -68.375 19.265625 -67.519531 19.265625 -66.53125 L 19.265625 -85.375 C 19.265625 -87.625 18.410156 -89.664062 16.703125 -91.5 C 14.992188 -93.34375 13.019531 -94.265625 10.78125 -94.265625 L 42.28125 -94.265625 L 56.703125 -52.921875 L 58.984375 -46.328125 C 59.160156 -45.609375 59.585938 -45 60.265625 -44.5 C 60.941406 -44.007812 61.679688 -43.765625 62.484375 -43.765625 Z M 111.78125 -94.265625 C 109.53125 -94.265625 107.617188 -93.34375 106.046875 -91.5 C 104.484375 -89.664062 103.703125 -87.625 103.703125 -85.375 L 103.703125 -8.890625 C 103.703125 -6.640625 104.484375 -4.59375 106.046875 -2.75 C 107.617188 -0.914062 109.53125 0 111.78125 0 L 71.78125 0 C 74.113281 0 76.066406 -0.914062 77.640625 -2.75 C 79.210938 -4.59375 80 -6.640625 80 -8.890625 L 80 -67.203125 C 80 -68.191406 79.613281 -69.066406 78.84375 -69.828125 C 78.082031 -70.585938 77.207031 -70.96875 76.21875 -70.96875 C 74.519531 -70.96875 73.351562 -70.113281 72.71875 -68.40625 L 75.015625 -75.140625 L 81.46875 -94.265625 Z M 111.78125 -94.265625 "/></g></g></g></svg>