<svg xmlns="http://www.w3.org/2000/svg" xmlns:xlink="http://www.w3.org/1999/xlink" width="500" zoomAndPan="magnify" viewBox="0 0 375 374.999991" height="500" preserveAspectRatio="xMidYMid meet" version="1.0"><path fill="#060606" d="M 132.363281 156.128906 C 131.433594 156.128906 130.5625 156.609375 129.753906 157.574219 C 128.945312 158.535156 128.238281 159.84375 127.636719 161.496094 C 127.035156 163.148438 126.5625 165.066406 126.21875 167.253906 C 125.871094 169.441406 125.699219 171.757812 125.699219 174.199219 C 125.699219 176.644531 125.871094 178.960938 126.21875 181.148438 C 126.5625 183.332031 127.035156 185.25 127.636719 186.902344 C 128.238281 188.554688 128.945312 189.863281 129.753906 190.828125 C 130.5625 191.792969 131.433594 192.273438 132.363281 192.273438 C 130.125 192.273438 128.015625 191.800781 126.035156 190.855469 C 124.058594 189.910156 122.324219 188.621094 120.84375 186.984375 C 119.363281 185.347656 118.203125 183.425781 117.363281 181.222656 C 116.519531 179.019531 116.097656 176.675781 116.097656 174.199219 C 116.097656 171.71875 116.519531 169.378906 117.363281 167.179688 C 118.203125 164.976562 119.363281 163.058594 120.84375 161.421875 C 122.324219 159.785156 124.058594 158.496094 126.035156 157.546875 C 128.015625 156.601562 130.125 156.128906 132.363281 156.128906 Z M 138.144531 159.378906 C 138.144531 158.863281 137.996094 158.414062 137.707031 158.035156 C 137.414062 157.65625 137.042969 157.339844 136.59375 157.078125 C 136.144531 156.820312 135.65625 156.621094 135.125 156.484375 C 134.589844 156.347656 134.082031 156.246094 133.597656 156.179688 C 134.839844 156.285156 136.046875 156.535156 137.21875 156.929688 C 138.386719 157.324219 139.472656 157.824219 140.46875 158.429688 C 141.46875 159.027344 142.355469 159.707031 143.128906 160.464844 C 143.90625 161.222656 144.550781 161.996094 145.066406 162.785156 C 145.410156 163.371094 145.675781 163.953125 145.863281 164.523438 C 146.050781 165.089844 146.148438 165.648438 146.148438 166.199219 C 146.148438 166.953125 146.003906 167.667969 145.710938 168.339844 C 145.417969 169.011719 145.023438 169.597656 144.523438 170.097656 C 144.023438 170.59375 143.4375 170.988281 142.769531 171.285156 C 142.097656 171.578125 141.382812 171.722656 140.625 171.722656 C 139.863281 171.722656 139.152344 171.578125 138.480469 171.285156 C 137.808594 170.988281 137.222656 170.59375 136.722656 170.097656 C 136.222656 169.597656 135.828125 169.011719 135.535156 168.339844 C 135.246094 167.667969 135.097656 166.953125 135.097656 166.199219 C 135.097656 165.472656 135.226562 164.785156 135.488281 164.128906 C 135.746094 163.476562 136.113281 162.890625 136.597656 162.371094 C 137.078125 161.894531 137.457031 161.394531 137.730469 160.878906 C 138.003906 160.363281 138.144531 159.863281 138.144531 159.378906 Z M 149.25 178.121094 C 148.386719 178.121094 147.652344 178.476562 147.050781 179.183594 C 146.449219 179.890625 146.148438 180.671875 146.148438 181.535156 L 146.148438 192.273438 C 145.527344 191.894531 144.855469 191.582031 144.128906 191.339844 C 143.410156 191.101562 142.566406 190.980469 141.605469 190.980469 C 140.78125 190.980469 140.03125 191.03125 139.355469 191.136719 C 138.683594 191.238281 138.039062 191.359375 137.417969 191.496094 C 136.800781 191.636719 136.183594 191.773438 135.5625 191.910156 C 134.945312 192.046875 134.289062 192.152344 133.597656 192.222656 C 134.1875 192.152344 134.789062 191.988281 135.40625 191.730469 C 136.027344 191.472656 136.578125 191.1875 137.0625 190.878906 L 137.0625 181.535156 C 137.0625 180.671875 136.757812 179.890625 136.15625 179.183594 C 135.554688 178.476562 134.808594 178.121094 133.910156 178.121094 Z M 149.25 178.121094 " fill-opacity="1" fill-rule="nonzero"/><path fill="#060606" d="M 164.527344 192.273438 C 166.007812 192.273438 167.425781 192.023438 168.785156 191.523438 C 170.148438 191.023438 171.378906 190.335938 172.480469 189.460938 C 173.582031 188.582031 174.539062 187.546875 175.347656 186.359375 C 176.15625 185.171875 176.730469 183.910156 177.078125 182.566406 L 177.078125 192.273438 Z M 167.160156 156.128906 C 166.269531 156.128906 165.519531 156.480469 164.917969 157.183594 C 164.3125 157.890625 164.011719 158.671875 164.011719 159.535156 L 164.011719 192.273438 L 151.828125 192.273438 C 152.6875 192.273438 153.417969 191.921875 154.015625 191.214844 C 154.621094 190.507812 154.921875 189.726562 154.921875 188.867188 L 154.921875 159.535156 C 154.921875 158.671875 154.621094 157.890625 154.015625 157.183594 C 153.417969 156.480469 152.6875 156.128906 151.828125 156.128906 Z M 167.160156 156.128906 " fill-opacity="1" fill-rule="nonzero"/><path fill="#060606" d="M 186.628906 186.542969 C 186.628906 187.332031 186.773438 188.082031 187.066406 188.792969 C 187.355469 189.496094 187.761719 190.105469 188.277344 190.621094 C 188.792969 191.140625 189.394531 191.542969 190.082031 191.835938 C 190.773438 192.128906 191.515625 192.273438 192.308594 192.273438 L 179.660156 192.273438 C 180.410156 192.167969 181.140625 191.925781 181.847656 191.546875 C 182.554688 191.167969 183.214844 190.695312 183.832031 190.128906 C 184.453125 189.5625 185.003906 188.933594 185.488281 188.246094 C 185.972656 187.558594 186.351562 186.851562 186.628906 186.128906 Z M 196.539062 192.273438 C 197.265625 192.273438 197.886719 191.972656 198.402344 191.371094 C 198.917969 190.769531 199.175781 190.089844 199.175781 189.328125 C 199.175781 189.191406 199.175781 189.054688 199.175781 188.917969 C 199.175781 188.777344 199.140625 188.640625 199.070312 188.503906 L 197.570312 184.167969 L 197.472656 183.855469 L 193.800781 173.273438 C 193.566406 172.683594 193.136719 172.390625 192.515625 172.390625 C 191.925781 172.390625 191.511719 172.683594 191.269531 173.273438 L 197.472656 156.128906 L 203.203125 172.597656 C 203.441406 173.285156 203.71875 174.105469 204.027344 175.054688 C 204.339844 176 204.613281 176.816406 204.851562 177.503906 L 209.089844 189.585938 C 209.332031 190.277344 209.753906 190.898438 210.351562 191.449219 C 210.957031 191.996094 211.652344 192.273438 212.445312 192.273438 Z M 196.539062 192.273438 " fill-opacity="1" fill-rule="nonzero"/><path fill="#060606" d="M 221.269531 185.765625 C 221.269531 186.589844 221.433594 187.402344 221.757812 188.191406 C 222.085938 188.984375 222.535156 189.683594 223.101562 190.285156 C 223.671875 190.886719 224.335938 191.367188 225.089844 191.730469 C 225.847656 192.089844 226.640625 192.273438 227.46875 192.273438 L 215.027344 192.273438 C 215.851562 192.273438 216.640625 192.089844 217.394531 191.730469 C 218.152344 191.367188 218.816406 190.886719 219.382812 190.285156 C 219.953125 189.683594 220.410156 188.984375 220.75 188.191406 C 221.097656 187.402344 221.269531 186.589844 221.269531 185.765625 Z M 237.695312 175.492188 C 238.347656 175.492188 238.796875 175.164062 239.03125 174.511719 L 238.519531 176.003906 L 232.839844 192.273438 L 223.851562 166.296875 C 223.613281 165.683594 223.167969 165.371094 222.515625 165.371094 C 222.132812 165.371094 221.804688 165.511719 221.527344 165.785156 C 221.25 166.058594 221.113281 166.386719 221.113281 166.765625 L 221.113281 159.535156 C 221.113281 158.671875 220.785156 157.890625 220.132812 157.183594 C 219.484375 156.480469 218.726562 156.128906 217.863281 156.128906 L 229.945312 156.128906 L 235.46875 171.980469 L 236.351562 174.511719 C 236.417969 174.785156 236.578125 175.019531 236.839844 175.210938 C 237.097656 175.398438 237.382812 175.492188 237.695312 175.492188 Z M 256.589844 156.128906 C 255.730469 156.128906 255 156.480469 254.394531 157.183594 C 253.796875 157.890625 253.496094 158.671875 253.496094 159.535156 L 253.496094 188.867188 C 253.496094 189.726562 253.796875 190.507812 254.394531 191.214844 C 255 191.921875 255.730469 192.273438 256.589844 192.273438 L 241.257812 192.273438 C 242.148438 192.273438 242.898438 191.921875 243.5 191.214844 C 244.105469 190.507812 244.40625 189.726562 244.40625 188.867188 L 244.40625 166.503906 C 244.40625 166.125 244.257812 165.789062 243.964844 165.496094 C 243.671875 165.207031 243.335938 165.058594 242.957031 165.058594 C 242.304688 165.058594 241.855469 165.386719 241.613281 166.042969 L 242.496094 163.460938 L 244.976562 156.128906 Z M 256.589844 156.128906 " fill-opacity="1" fill-rule="nonzero"/><path fill="#fccc54" d="M 187.945312 206.011719 C 186.0625 206.011719 184.480469 205.503906 183.195312 204.484375 C 181.910156 203.464844 181.269531 202.003906 181.269531 200.097656 C 181.269531 198.980469 181.476562 197.988281 181.898438 197.117188 C 182.324219 196.242188 182.882812 195.558594 183.574219 195.058594 C 184.96875 194.039062 186.535156 193.527344 188.269531 193.527344 C 189.277344 193.527344 190.328125 193.710938 191.417969 194.074219 L 191.238281 195.308594 C 190.664062 195.070312 190.222656 194.886719 189.90625 194.765625 C 188.996094 194.4375 188.082031 194.273438 187.164062 194.273438 C 185.886719 194.566406 184.90625 195.195312 184.21875 196.167969 C 183.535156 197.136719 183.195312 198.351562 183.195312 199.804688 C 183.195312 201.589844 183.660156 202.964844 184.59375 203.929688 C 185.527344 204.890625 186.757812 205.371094 188.289062 205.371094 C 189.816406 205.371094 190.957031 205.046875 191.707031 204.390625 L 191.707031 205.390625 C 190.664062 205.804688 189.410156 206.011719 187.945312 206.011719 Z M 187.945312 206.011719 " fill-opacity="1" fill-rule="nonzero"/><path fill="#fccc54" d="M 197.128906 197.347656 C 198.195312 197.347656 199.078125 197.714844 199.773438 198.441406 C 200.472656 199.171875 200.824219 200.171875 200.824219 201.441406 C 200.824219 202.253906 200.683594 202.972656 200.40625 203.589844 C 200.125 204.207031 199.761719 204.6875 199.3125 205.027344 C 198.453125 205.683594 197.492188 206.011719 196.429688 206.011719 C 195.367188 206.011719 194.488281 205.648438 193.792969 204.921875 C 193.097656 204.195312 192.75 203.191406 192.75 201.917969 C 192.75 201.105469 192.882812 200.390625 193.15625 199.773438 C 193.429688 199.152344 193.789062 198.671875 194.238281 198.328125 C 195.097656 197.675781 196.0625 197.347656 197.128906 197.347656 Z M 196.769531 205.390625 C 197.300781 205.390625 197.753906 205.183594 198.128906 204.773438 C 198.808594 204.042969 199.148438 203.078125 199.148438 201.871094 C 199.148438 200.664062 198.941406 199.726562 198.53125 199.054688 C 198.117188 198.378906 197.445312 198.042969 196.511719 198.042969 C 195.820312 198.308594 195.292969 198.777344 194.9375 199.453125 C 194.578125 200.125 194.398438 200.9375 194.398438 201.890625 C 194.398438 202.839844 194.59375 203.664062 194.980469 204.355469 C 195.371094 205.046875 195.96875 205.390625 196.769531 205.390625 Z M 196.769531 205.390625 " fill-opacity="1" fill-rule="nonzero"/><path fill="#fccc54" d="M 204.429688 198.117188 C 204.109375 198.117188 203.851562 198.234375 203.652344 198.472656 C 203.453125 198.707031 203.351562 198.972656 203.351562 199.273438 C 203.351562 199.570312 203.492188 199.855469 203.777344 200.128906 C 204.066406 200.402344 204.410156 200.640625 204.816406 200.855469 C 205.222656 201.066406 205.628906 201.289062 206.027344 201.515625 C 206.429688 201.746094 206.769531 202.042969 207.054688 202.410156 C 207.339844 202.773438 207.484375 203.179688 207.484375 203.628906 C 207.484375 204.308594 207.210938 204.875 206.664062 205.328125 C 206.117188 205.785156 205.375 206.011719 204.433594 206.011719 C 203.496094 206.011719 202.640625 205.792969 201.867188 205.355469 L 201.867188 204.667969 C 202.6875 205.074219 203.429688 205.277344 204.097656 205.277344 C 204.765625 205.277344 205.253906 205.144531 205.554688 204.878906 C 205.855469 204.613281 206.007812 204.308594 206.007812 203.960938 C 206.007812 203.613281 205.871094 203.308594 205.597656 203.035156 C 205.324219 202.761719 204.992188 202.519531 204.597656 202.316406 C 204.203125 202.113281 203.816406 201.894531 203.429688 201.667969 C 203.039062 201.433594 202.710938 201.136719 202.433594 200.773438 C 202.164062 200.40625 202.027344 199.964844 202.027344 199.453125 C 202.027344 198.9375 202.234375 198.457031 202.652344 198.015625 C 203.074219 197.570312 203.71875 197.347656 204.589844 197.347656 C 205.464844 197.347656 206.304688 197.507812 207.101562 197.824219 L 206.921875 199.023438 C 206.023438 198.539062 205.191406 198.238281 204.429688 198.117188 Z M 204.429688 198.117188 " fill-opacity="1" fill-rule="nonzero"/><path fill="#fccc54" d="M 218.820312 197.347656 C 220.25 197.347656 220.964844 198.433594 220.964844 200.605469 L 220.964844 205.792969 L 219.441406 205.792969 L 219.441406 200.460938 C 219.441406 199.445312 219.242188 198.824219 218.851562 198.605469 C 218.660156 198.496094 218.390625 198.441406 218.046875 198.441406 C 217.699219 198.441406 217.328125 198.546875 216.933594 198.761719 C 216.542969 198.972656 216.253906 199.214844 216.070312 199.480469 L 216.070312 205.792969 L 214.527344 205.792969 L 214.527344 200.371094 C 214.527344 199.726562 214.429688 199.246094 214.234375 198.921875 C 214.042969 198.601562 213.753906 198.441406 213.378906 198.441406 C 213.003906 198.441406 212.640625 198.527344 212.296875 198.699219 C 211.949219 198.863281 211.671875 199.035156 211.464844 199.203125 C 211.261719 199.375 211.160156 199.480469 211.160156 199.515625 L 211.160156 205.792969 L 209.632812 205.792969 L 209.632812 200.078125 C 209.632812 199.253906 209.324219 198.59375 208.703125 198.097656 L 209.632812 197.402344 L 211.082031 198.734375 C 211.652344 198.261719 212.152344 197.910156 212.578125 197.683594 C 213.003906 197.460938 213.445312 197.347656 213.910156 197.347656 C 214.960938 197.347656 215.617188 197.839844 215.871094 198.824219 C 216.296875 198.339844 216.78125 197.972656 217.328125 197.722656 C 217.871094 197.472656 218.371094 197.347656 218.820312 197.347656 Z M 218.820312 197.347656 " fill-opacity="1" fill-rule="nonzero"/><path fill="#fccc54" d="M 224.1875 201.316406 C 224.1875 202.625 224.484375 203.570312 225.070312 204.148438 C 225.65625 204.722656 226.371094 205.011719 227.214844 205.011719 C 228.058594 205.011719 228.839844 204.847656 229.550781 204.515625 L 229.550781 205.152344 C 228.558594 205.726562 227.609375 206.011719 226.695312 206.011719 C 225.519531 206.011719 224.566406 205.652344 223.839844 204.933594 C 223.113281 204.21875 222.75 203.183594 222.75 201.824219 C 222.75 200.464844 223.152344 199.378906 223.957031 198.566406 C 224.765625 197.753906 225.738281 197.347656 226.875 197.347656 C 227.765625 197.347656 228.503906 197.699219 229.09375 198.398438 C 229.691406 199.09375 229.988281 200.066406 229.988281 201.316406 Z M 225.953125 198.203125 C 225.527344 198.414062 225.160156 198.746094 224.859375 199.199219 C 224.558594 199.652344 224.359375 200.175781 224.257812 200.773438 L 228.515625 200.773438 C 228.480469 200.261719 228.363281 199.824219 228.164062 199.460938 C 227.964844 199.097656 227.722656 198.832031 227.445312 198.660156 C 226.945312 198.355469 226.445312 198.203125 225.953125 198.203125 Z M 225.953125 198.203125 " fill-opacity="1" fill-rule="nonzero"/><path fill="#fccc54" d="M 233.992188 204.191406 C 233.992188 204.554688 234.0625 204.828125 234.210938 205.011719 C 234.355469 205.191406 234.597656 205.277344 234.933594 205.277344 C 235.277344 205.277344 235.683594 205.191406 236.160156 205.011719 L 236.160156 205.515625 C 235.457031 205.84375 234.824219 206.011719 234.265625 206.011719 C 233.707031 206.011719 233.269531 205.855469 232.949219 205.546875 C 232.625 205.234375 232.464844 204.753906 232.464844 204.097656 L 232.464844 198.222656 L 230.992188 197.929688 L 230.992188 197.566406 L 232.464844 197.566406 L 232.464844 196.910156 L 233.992188 195.804688 L 233.992188 197.566406 L 236.160156 197.566406 L 236.160156 198.222656 L 233.992188 198.222656 Z M 233.992188 204.191406 " fill-opacity="1" fill-rule="nonzero"/><path fill="#fccc54" d="M 238.160156 205.792969 L 238.160156 197.566406 L 239.671875 197.566406 L 239.671875 205.792969 Z M 237.976562 195.035156 C 237.976562 194.773438 238.066406 194.550781 238.238281 194.367188 C 238.417969 194.183594 238.636719 194.089844 238.894531 194.089844 C 239.160156 194.089844 239.382812 194.183594 239.570312 194.367188 C 239.757812 194.550781 239.851562 194.769531 239.851562 195.023438 C 239.851562 195.277344 239.757812 195.503906 239.570312 195.699219 C 239.382812 195.890625 239.160156 195.984375 238.910156 195.984375 C 238.652344 195.984375 238.433594 195.890625 238.253906 195.703125 C 238.066406 195.515625 237.976562 195.292969 237.976562 195.035156 Z M 237.976562 195.035156 " fill-opacity="1" fill-rule="nonzero"/><path fill="#fccc54" d="M 245.1875 206.011719 C 244.125 206.011719 243.25 205.652344 242.554688 204.929688 C 241.859375 204.207031 241.511719 203.1875 241.511719 201.867188 C 241.511719 200.542969 241.882812 199.457031 242.628906 198.617188 C 243.375 197.769531 244.324219 197.347656 245.472656 197.347656 C 246.117188 197.347656 246.84375 197.507812 247.640625 197.824219 L 247.460938 199.023438 C 246.390625 198.464844 245.472656 198.183594 244.710938 198.183594 C 244.082031 198.503906 243.625 199.011719 243.347656 199.714844 C 243.070312 200.421875 242.929688 201.113281 242.929688 201.792969 C 242.929688 202.714844 243.199219 203.480469 243.734375 204.089844 C 244.277344 204.703125 244.921875 205.011719 245.671875 205.011719 C 246.425781 205.011719 247.117188 204.847656 247.75 204.515625 L 247.75 205.152344 C 246.875 205.726562 246.023438 206.011719 245.1875 206.011719 Z M 245.1875 206.011719 " fill-opacity="1" fill-rule="nonzero"/><path fill="#fccc54" d="M 251.496094 198.117188 C 251.179688 198.117188 250.921875 198.234375 250.722656 198.472656 C 250.523438 198.707031 250.421875 198.972656 250.421875 199.273438 C 250.421875 199.570312 250.5625 199.855469 250.847656 200.128906 C 251.136719 200.402344 251.480469 200.640625 251.886719 200.855469 C 252.292969 201.066406 252.699219 201.289062 253.097656 201.515625 C 253.496094 201.746094 253.839844 202.042969 254.121094 202.410156 C 254.410156 202.773438 254.554688 203.179688 254.554688 203.628906 C 254.554688 204.308594 254.28125 204.875 253.734375 205.328125 C 253.1875 205.785156 252.445312 206.011719 251.503906 206.011719 C 250.566406 206.011719 249.710938 205.792969 248.933594 205.355469 L 248.933594 204.667969 C 249.753906 205.074219 250.5 205.277344 251.167969 205.277344 C 251.835938 205.277344 252.324219 205.144531 252.621094 204.878906 C 252.925781 204.613281 253.078125 204.308594 253.078125 203.960938 C 253.078125 203.613281 252.941406 203.308594 252.667969 203.035156 C 252.394531 202.761719 252.0625 202.519531 251.667969 202.316406 C 251.273438 202.113281 250.886719 201.894531 250.496094 201.667969 C 250.109375 201.433594 249.777344 201.136719 249.503906 200.773438 C 249.230469 200.40625 249.097656 199.964844 249.097656 199.453125 C 249.097656 198.9375 249.304688 198.457031 249.722656 198.015625 C 250.144531 197.570312 250.789062 197.347656 251.660156 197.347656 C 252.535156 197.347656 253.371094 197.507812 254.171875 197.824219 L 253.992188 199.023438 C 253.089844 198.539062 252.261719 198.238281 251.496094 198.117188 Z M 251.496094 198.117188 " fill-opacity="1" fill-rule="nonzero"/></svg>