<svg xmlns="http://www.w3.org/2000/svg" xmlns:xlink="http://www.w3.org/1999/xlink" width="500" zoomAndPan="magnify" viewBox="0 0 375 374.999991" height="500" preserveAspectRatio="xMidYMid meet" version="1.0"><defs><g/><clipPath id="739e5d9b46"><path d="M 56.34375 182 L 153 182 L 153 233.695312 L 56.34375 233.695312 Z M 56.34375 182 " clip-rule="nonzero"/></clipPath><clipPath id="0fd0c7d32d"><path d="M 56.34375 175 L 153.09375 175 L 153.09375 233.695312 L 56.34375 233.695312 Z M 56.34375 175 " clip-rule="nonzero"/></clipPath><clipPath id="ff072db09b"><path d="M 81 158.695312 L 128 158.695312 L 128 233.695312 L 81 233.695312 Z M 81 158.695312 " clip-rule="nonzero"/></clipPath><clipPath id="439611546b"><path d="M 89 172 L 121 172 L 121 233.695312 L 89 233.695312 Z M 89 172 " clip-rule="nonzero"/></clipPath></defs><g clip-path="url(#739e5d9b46)"><path fill="#ab77db" d="M 104.75 233.695312 C 104.75 233.695312 104.71875 233.695312 104.71875 233.695312 C 104.71875 233.695312 104.6875 233.695312 104.6875 233.695312 C 56.914062 233.632812 56.480469 182.675781 56.480469 182.675781 C 56.480469 182.675781 74.339844 180.71875 85.078125 190.796875 L 104.71875 233.601562 L 124.359375 190.796875 C 135.097656 180.6875 152.957031 182.675781 152.957031 182.675781 C 152.957031 182.675781 152.519531 233.632812 104.75 233.695312 Z M 104.75 233.695312 " fill-opacity="1" fill-rule="nonzero"/></g><g clip-path="url(#0fd0c7d32d)"><path stroke-linecap="butt" transform="matrix(0.31223, 0, 0, 0.311074, 56.478642, 158.693368)" fill="none" stroke-linejoin="miter" d="M 88.194484 131.506216 L 118.495642 226.401674 C 117.294606 225.899382 66.500756 206.598824 41.904522 160.300087 C 30.094327 137.998336 27.404505 113.900892 24.802258 96.998777 C 42.8053 98.694011 71.605163 109.50584 88.194484 131.506216 Z M 220.796457 131.99595 L 190.495299 226.803507 C 191.696335 226.301215 243.403473 205.59424 267.098929 161.103754 C 278.896614 138.902461 281.598947 114.905475 284.201193 98.00336 C 266.198152 99.598136 237.398289 110.096033 220.796457 131.99595 Z M 220.796457 131.99595 " stroke="#fccc54" stroke-width="3" stroke-opacity="1" stroke-miterlimit="10"/></g><g clip-path="url(#ff072db09b)"><path fill="#ab77db" d="M 127.542969 206.320312 C 127.542969 225.480469 117.332031 233.664062 104.71875 233.664062 C 92.105469 233.664062 81.894531 225.480469 81.894531 206.320312 C 81.925781 184.046875 104.75 158.695312 104.75 158.695312 C 104.75 158.695312 127.542969 184.046875 127.542969 206.320312 Z M 127.542969 206.320312 " fill-opacity="1" fill-rule="nonzero"/></g><g clip-path="url(#439611546b)"><path fill="#fccc54" d="M 120.296875 212.105469 C 120.296875 221.71875 117.675781 228.714844 112.992188 232.292969 C 111.773438 232.730469 110.527344 233.039062 109.246094 233.257812 C 111.523438 232.449219 113.492188 230.988281 115.054688 228.902344 C 117.925781 225.078125 119.363281 219.445312 119.363281 212.105469 C 119.363281 196.488281 107.089844 177.917969 104.75 174.527344 C 102.40625 177.917969 90.136719 196.488281 90.136719 212.105469 C 90.136719 219.414062 91.605469 225.078125 94.445312 228.902344 C 96.007812 230.988281 97.972656 232.449219 100.253906 233.257812 C 98.941406 233.039062 97.691406 232.699219 96.507812 232.292969 C 91.824219 228.746094 89.199219 221.71875 89.199219 212.105469 C 89.199219 194.621094 104.21875 173.625 104.375 173.4375 L 104.75 172.910156 L 105.125 173.4375 C 105.28125 173.65625 120.296875 194.621094 120.296875 212.105469 Z M 120.296875 212.105469 " fill-opacity="1" fill-rule="nonzero"/></g><g fill="#ab77db" fill-opacity="1"><g transform="translate(162.755648, 226.070436)"><g><path d="M 18.328125 -37.734375 C 17.359375 -37.734375 16.453125 -37.226562 15.609375 -36.21875 C 14.765625 -35.21875 14.023438 -33.851562 13.390625 -32.125 C 12.765625 -30.40625 12.269531 -28.398438 11.90625 -26.109375 C 11.550781 -23.828125 11.375 -21.410156 11.375 -18.859375 C 11.375 -16.316406 11.550781 -13.898438 11.90625 -11.609375 C 12.269531 -9.328125 12.765625 -7.320312 13.390625 -5.59375 C 14.023438 -3.875 14.765625 -2.507812 15.609375 -1.5 C 16.453125 -0.5 17.359375 0 18.328125 0 C 15.992188 0 13.789062 -0.492188 11.71875 -1.484375 C 9.65625 -2.472656 7.847656 -3.816406 6.296875 -5.515625 C 4.753906 -7.222656 3.539062 -9.226562 2.65625 -11.53125 C 1.78125 -13.832031 1.34375 -16.273438 1.34375 -18.859375 C 1.34375 -21.453125 1.78125 -23.894531 2.65625 -26.1875 C 3.539062 -28.488281 4.753906 -30.492188 6.296875 -32.203125 C 7.847656 -33.910156 9.65625 -35.257812 11.71875 -36.25 C 13.789062 -37.238281 15.992188 -37.734375 18.328125 -37.734375 Z M 24.359375 -34.34375 C 24.359375 -34.875 24.207031 -35.335938 23.90625 -35.734375 C 23.601562 -36.128906 23.21875 -36.460938 22.75 -36.734375 C 22.28125 -37.003906 21.765625 -37.210938 21.203125 -37.359375 C 20.648438 -37.503906 20.125 -37.613281 19.625 -37.6875 C 20.914062 -37.570312 22.171875 -37.304688 23.390625 -36.890625 C 24.617188 -36.484375 25.753906 -35.960938 26.796875 -35.328125 C 27.835938 -34.703125 28.757812 -33.992188 29.5625 -33.203125 C 30.375 -32.410156 31.050781 -31.601562 31.59375 -30.78125 C 31.945312 -30.164062 32.222656 -29.5625 32.421875 -28.96875 C 32.617188 -28.375 32.71875 -27.789062 32.71875 -27.21875 C 32.71875 -26.425781 32.5625 -25.679688 32.25 -24.984375 C 31.945312 -24.285156 31.535156 -23.675781 31.015625 -23.15625 C 30.492188 -22.632812 29.882812 -22.21875 29.1875 -21.90625 C 28.488281 -21.601562 27.742188 -21.453125 26.953125 -21.453125 C 26.160156 -21.453125 25.414062 -21.601562 24.71875 -21.90625 C 24.019531 -22.21875 23.40625 -22.632812 22.875 -23.15625 C 22.351562 -23.675781 21.941406 -24.285156 21.640625 -24.984375 C 21.335938 -25.679688 21.1875 -26.425781 21.1875 -27.21875 C 21.1875 -27.976562 21.320312 -28.695312 21.59375 -29.375 C 21.863281 -30.0625 22.25 -30.675781 22.75 -31.21875 C 23.25 -31.71875 23.640625 -32.234375 23.921875 -32.765625 C 24.210938 -33.304688 24.359375 -33.832031 24.359375 -34.34375 Z M 35.953125 -14.765625 C 35.054688 -14.765625 34.289062 -14.394531 33.65625 -13.65625 C 33.03125 -12.925781 32.71875 -12.113281 32.71875 -11.21875 L 32.71875 0 C 32.070312 -0.394531 31.367188 -0.71875 30.609375 -0.96875 C 29.859375 -1.21875 28.984375 -1.34375 27.984375 -1.34375 C 27.117188 -1.34375 26.332031 -1.289062 25.625 -1.1875 C 24.925781 -1.082031 24.253906 -0.957031 23.609375 -0.8125 C 22.960938 -0.664062 22.316406 -0.519531 21.671875 -0.375 C 21.023438 -0.226562 20.34375 -0.117188 19.625 -0.046875 C 20.226562 -0.117188 20.851562 -0.289062 21.5 -0.5625 C 22.15625 -0.832031 22.734375 -1.128906 23.234375 -1.453125 L 23.234375 -11.21875 C 23.234375 -12.113281 22.914062 -12.925781 22.28125 -13.65625 C 21.65625 -14.394531 20.875 -14.765625 19.9375 -14.765625 Z M 35.953125 -14.765625 "/></g></g></g><g fill="#ab77db" fill-opacity="1"><g transform="translate(200.058819, 226.070436)"><g><path d="M 14.609375 0 C 16.148438 0 17.628906 -0.257812 19.046875 -0.78125 C 20.472656 -1.300781 21.757812 -2.019531 22.90625 -2.9375 C 24.0625 -3.851562 25.0625 -4.929688 25.90625 -6.171875 C 26.75 -7.410156 27.347656 -8.734375 27.703125 -10.140625 L 27.703125 0 Z M 17.359375 -37.734375 C 16.421875 -37.734375 15.632812 -37.363281 15 -36.625 C 14.375 -35.894531 14.0625 -35.078125 14.0625 -34.171875 L 14.0625 0 L 1.34375 0 C 2.238281 0 3 -0.363281 3.625 -1.09375 C 4.257812 -1.832031 4.578125 -2.65625 4.578125 -3.5625 L 4.578125 -34.171875 C 4.578125 -35.078125 4.257812 -35.894531 3.625 -36.625 C 3 -37.363281 2.238281 -37.734375 1.34375 -37.734375 Z M 17.359375 -37.734375 "/></g></g></g><g fill="#ab77db" fill-opacity="1"><g transform="translate(229.114325, 226.070436)"><g><path d="M 8.625 -5.984375 C 8.625 -5.160156 8.773438 -4.378906 9.078125 -3.640625 C 9.390625 -2.898438 9.8125 -2.257812 10.34375 -1.71875 C 10.882812 -1.1875 11.515625 -0.765625 12.234375 -0.453125 C 12.953125 -0.148438 13.722656 0 14.546875 0 L 1.34375 0 C 2.132812 -0.101562 2.898438 -0.351562 3.640625 -0.75 C 4.378906 -1.144531 5.070312 -1.640625 5.71875 -2.234375 C 6.363281 -2.828125 6.9375 -3.484375 7.4375 -4.203125 C 7.9375 -4.921875 8.332031 -5.660156 8.625 -6.421875 Z M 18.96875 0 C 19.726562 0 20.375 -0.3125 20.90625 -0.9375 C 21.445312 -1.570312 21.71875 -2.285156 21.71875 -3.078125 C 21.71875 -3.210938 21.71875 -3.351562 21.71875 -3.5 C 21.71875 -3.644531 21.679688 -3.789062 21.609375 -3.9375 L 20.046875 -8.46875 L 19.9375 -8.78125 L 16.125 -19.84375 C 15.863281 -20.445312 15.410156 -20.75 14.765625 -20.75 C 14.160156 -20.75 13.726562 -20.445312 13.46875 -19.84375 L 19.9375 -37.734375 L 25.921875 -20.53125 C 26.179688 -19.8125 26.472656 -18.957031 26.796875 -17.96875 C 27.117188 -16.988281 27.40625 -16.140625 27.65625 -15.421875 L 32.078125 -2.796875 C 32.328125 -2.078125 32.765625 -1.429688 33.390625 -0.859375 C 34.023438 -0.285156 34.753906 0 35.578125 0 Z M 18.96875 0 "/></g></g></g><g fill="#ab77db" fill-opacity="1"><g transform="translate(266.040149, 226.070436)"><g><path d="M 7.875 -6.796875 C 7.875 -5.929688 8.039062 -5.082031 8.375 -4.25 C 8.71875 -3.425781 9.1875 -2.695312 9.78125 -2.0625 C 10.375 -1.4375 11.066406 -0.9375 11.859375 -0.5625 C 12.648438 -0.1875 13.476562 0 14.34375 0 L 1.34375 0 C 2.207031 0 3.035156 -0.1875 3.828125 -0.5625 C 4.617188 -0.9375 5.3125 -1.4375 5.90625 -2.0625 C 6.5 -2.695312 6.972656 -3.425781 7.328125 -4.25 C 7.691406 -5.082031 7.875 -5.929688 7.875 -6.796875 Z M 25.015625 -17.515625 C 25.691406 -17.515625 26.15625 -17.859375 26.40625 -18.546875 L 25.875 -16.984375 L 19.9375 0 L 10.5625 -27.109375 C 10.3125 -27.753906 9.84375 -28.078125 9.15625 -28.078125 C 8.769531 -28.078125 8.429688 -27.929688 8.140625 -27.640625 C 7.847656 -27.359375 7.703125 -27.019531 7.703125 -26.625 L 7.703125 -34.171875 C 7.703125 -35.078125 7.359375 -35.894531 6.671875 -36.625 C 5.992188 -37.363281 5.207031 -37.734375 4.3125 -37.734375 L 16.921875 -37.734375 L 22.6875 -21.1875 L 23.609375 -18.546875 C 23.679688 -18.253906 23.851562 -18.007812 24.125 -17.8125 C 24.394531 -17.613281 24.691406 -17.515625 25.015625 -17.515625 Z M 44.734375 -37.734375 C 43.835938 -37.734375 43.070312 -37.363281 42.4375 -36.625 C 41.8125 -35.894531 41.5 -35.078125 41.5 -34.171875 L 41.5 -3.5625 C 41.5 -2.65625 41.8125 -1.832031 42.4375 -1.09375 C 43.070312 -0.363281 43.835938 0 44.734375 0 L 28.734375 0 C 29.671875 0 30.453125 -0.363281 31.078125 -1.09375 C 31.703125 -1.832031 32.015625 -2.65625 32.015625 -3.5625 L 32.015625 -26.90625 C 32.015625 -27.289062 31.863281 -27.632812 31.5625 -27.9375 C 31.257812 -28.25 30.910156 -28.40625 30.515625 -28.40625 C 29.828125 -28.40625 29.359375 -28.066406 29.109375 -27.390625 L 30.03125 -30.078125 L 32.609375 -37.734375 Z M 44.734375 -37.734375 "/></g></g></g><g fill="#fccc54" fill-opacity="1"><g transform="translate(231.611313, 240.184321)"><g><path d="M 7.5 0.234375 C 5.539062 0.234375 3.890625 -0.296875 2.546875 -1.359375 C 1.203125 -2.429688 0.53125 -3.960938 0.53125 -5.953125 C 0.53125 -7.109375 0.75 -8.144531 1.1875 -9.0625 C 1.632812 -9.976562 2.21875 -10.691406 2.9375 -11.203125 C 4.394531 -12.273438 6.03125 -12.8125 7.84375 -12.8125 C 8.894531 -12.8125 9.992188 -12.617188 11.140625 -12.234375 L 10.9375 -10.9375 C 10.34375 -11.195312 9.882812 -11.390625 9.5625 -11.515625 C 8.601562 -11.859375 7.644531 -12.03125 6.6875 -12.03125 C 5.351562 -11.726562 4.328125 -11.066406 3.609375 -10.046875 C 2.898438 -9.035156 2.546875 -7.769531 2.546875 -6.25 C 2.546875 -4.382812 3.03125 -2.945312 4 -1.9375 C 4.976562 -0.9375 6.265625 -0.4375 7.859375 -0.4375 C 9.460938 -0.4375 10.65625 -0.78125 11.4375 -1.46875 L 11.4375 -0.421875 C 10.34375 0.015625 9.03125 0.234375 7.5 0.234375 Z M 7.5 0.234375 "/></g></g></g><g fill="#fccc54" fill-opacity="1"><g transform="translate(243.616863, 240.184321)"><g><path d="M 5.09375 -8.8125 C 6.207031 -8.8125 7.128906 -8.429688 7.859375 -7.671875 C 8.585938 -6.910156 8.953125 -5.867188 8.953125 -4.546875 C 8.953125 -3.691406 8.804688 -2.941406 8.515625 -2.296875 C 8.222656 -1.648438 7.84375 -1.148438 7.375 -0.796875 C 6.46875 -0.109375 5.460938 0.234375 4.359375 0.234375 C 3.253906 0.234375 2.335938 -0.144531 1.609375 -0.90625 C 0.878906 -1.664062 0.515625 -2.710938 0.515625 -4.046875 C 0.515625 -4.890625 0.65625 -5.632812 0.9375 -6.28125 C 1.226562 -6.9375 1.609375 -7.441406 2.078125 -7.796875 C 2.972656 -8.472656 3.976562 -8.8125 5.09375 -8.8125 Z M 4.71875 -0.421875 C 5.269531 -0.421875 5.742188 -0.632812 6.140625 -1.0625 C 6.847656 -1.820312 7.203125 -2.832031 7.203125 -4.09375 C 7.203125 -5.351562 6.984375 -6.332031 6.546875 -7.03125 C 6.117188 -7.738281 5.421875 -8.09375 4.453125 -8.09375 C 3.722656 -7.8125 3.171875 -7.316406 2.796875 -6.609375 C 2.421875 -5.910156 2.234375 -5.0625 2.234375 -4.0625 C 2.234375 -3.070312 2.4375 -2.21875 2.84375 -1.5 C 3.25 -0.78125 3.875 -0.421875 4.71875 -0.421875 Z M 4.71875 -0.421875 "/></g></g></g><g fill="#fccc54" fill-opacity="1"><g transform="translate(253.11492, 240.184321)"><g><path d="M 3.21875 -8.015625 C 2.882812 -8.015625 2.613281 -7.890625 2.40625 -7.640625 C 2.195312 -7.398438 2.09375 -7.125 2.09375 -6.8125 C 2.09375 -6.5 2.238281 -6.195312 2.53125 -5.90625 C 2.832031 -5.625 3.191406 -5.375 3.609375 -5.15625 C 4.035156 -4.9375 4.457031 -4.707031 4.875 -4.46875 C 5.300781 -4.226562 5.660156 -3.914062 5.953125 -3.53125 C 6.253906 -3.15625 6.40625 -2.734375 6.40625 -2.265625 C 6.40625 -1.554688 6.117188 -0.960938 5.546875 -0.484375 C 4.972656 -0.00390625 4.195312 0.234375 3.21875 0.234375 C 2.238281 0.234375 1.34375 0.00390625 0.53125 -0.453125 L 0.53125 -1.171875 C 1.394531 -0.742188 2.171875 -0.53125 2.859375 -0.53125 C 3.554688 -0.53125 4.0625 -0.671875 4.375 -0.953125 C 4.695312 -1.234375 4.859375 -1.550781 4.859375 -1.90625 C 4.859375 -2.269531 4.71875 -2.59375 4.4375 -2.875 C 4.15625 -3.164062 3.804688 -3.414062 3.390625 -3.625 C 2.984375 -3.84375 2.578125 -4.070312 2.171875 -4.3125 C 1.765625 -4.550781 1.414062 -4.859375 1.125 -5.234375 C 0.84375 -5.617188 0.703125 -6.078125 0.703125 -6.609375 C 0.703125 -7.148438 0.921875 -7.648438 1.359375 -8.109375 C 1.796875 -8.578125 2.46875 -8.8125 3.375 -8.8125 C 4.289062 -8.8125 5.164062 -8.648438 6 -8.328125 L 5.8125 -7.0625 C 4.875 -7.570312 4.007812 -7.890625 3.21875 -8.015625 Z M 3.21875 -8.015625 "/></g></g></g><g fill="#fccc54" fill-opacity="1"><g transform="translate(260.181475, 240.184321)"><g><path d="M 11.171875 -8.8125 C 12.660156 -8.8125 13.40625 -7.679688 13.40625 -5.421875 L 13.40625 0 L 11.8125 0 L 11.8125 -5.5625 C 11.8125 -6.625 11.609375 -7.269531 11.203125 -7.5 C 11.003906 -7.613281 10.722656 -7.671875 10.359375 -7.671875 C 10.003906 -7.671875 9.617188 -7.5625 9.203125 -7.34375 C 8.796875 -7.125 8.492188 -6.875 8.296875 -6.59375 L 8.296875 0 L 6.6875 0 L 6.6875 -5.65625 C 6.6875 -6.332031 6.582031 -6.835938 6.375 -7.171875 C 6.175781 -7.503906 5.878906 -7.671875 5.484375 -7.671875 C 5.097656 -7.671875 4.722656 -7.582031 4.359375 -7.40625 C 3.992188 -7.226562 3.703125 -7.050781 3.484375 -6.875 C 3.273438 -6.695312 3.171875 -6.59375 3.171875 -6.5625 L 3.171875 0 L 1.578125 0 L 1.578125 -5.96875 C 1.578125 -6.832031 1.253906 -7.519531 0.609375 -8.03125 L 1.578125 -8.765625 L 3.09375 -7.375 C 3.6875 -7.863281 4.203125 -8.222656 4.640625 -8.453125 C 5.085938 -8.691406 5.554688 -8.8125 6.046875 -8.8125 C 7.140625 -8.8125 7.820312 -8.300781 8.09375 -7.28125 C 8.539062 -7.78125 9.046875 -8.160156 9.609375 -8.421875 C 10.179688 -8.679688 10.703125 -8.8125 11.171875 -8.8125 Z M 11.171875 -8.8125 "/></g></g></g><g fill="#fccc54" fill-opacity="1"><g transform="translate(274.960454, 240.184321)"><g><path d="M 2 -4.671875 C 2 -3.304688 2.304688 -2.320312 2.921875 -1.71875 C 3.535156 -1.113281 4.28125 -0.8125 5.15625 -0.8125 C 6.039062 -0.8125 6.851562 -0.984375 7.59375 -1.328125 L 7.59375 -0.671875 C 6.5625 -0.0664062 5.566406 0.234375 4.609375 0.234375 C 3.390625 0.234375 2.398438 -0.140625 1.640625 -0.890625 C 0.878906 -1.640625 0.5 -2.722656 0.5 -4.140625 C 0.5 -5.554688 0.914062 -6.6875 1.75 -7.53125 C 2.59375 -8.382812 3.613281 -8.8125 4.8125 -8.8125 C 5.726562 -8.8125 6.5 -8.445312 7.125 -7.71875 C 7.75 -6.988281 8.0625 -5.972656 8.0625 -4.671875 Z M 3.84375 -7.921875 C 3.394531 -7.703125 3.007812 -7.351562 2.6875 -6.875 C 2.375 -6.40625 2.171875 -5.863281 2.078125 -5.25 L 6.515625 -5.25 C 6.472656 -5.78125 6.347656 -6.234375 6.140625 -6.609375 C 5.929688 -6.992188 5.679688 -7.273438 5.390625 -7.453125 C 4.867188 -7.765625 4.351562 -7.921875 3.84375 -7.921875 Z M 3.84375 -7.921875 "/></g></g></g><g fill="#fccc54" fill-opacity="1"><g transform="translate(283.869633, 240.184321)"><g><path d="M 3.328125 -1.671875 C 3.328125 -1.296875 3.398438 -1.007812 3.546875 -0.8125 C 3.703125 -0.625 3.957031 -0.53125 4.3125 -0.53125 C 4.664062 -0.53125 5.09375 -0.625 5.59375 -0.8125 L 5.59375 -0.28125 C 4.851562 0.0625 4.191406 0.234375 3.609375 0.234375 C 3.023438 0.234375 2.566406 0.0703125 2.234375 -0.25 C 1.898438 -0.570312 1.734375 -1.078125 1.734375 -1.765625 L 1.734375 -7.90625 L 0.1875 -8.203125 L 0.1875 -8.59375 L 1.734375 -8.59375 L 1.734375 -9.265625 L 3.328125 -10.4375 L 3.328125 -8.59375 L 5.59375 -8.59375 L 5.59375 -7.90625 L 3.328125 -7.90625 Z M 3.328125 -1.671875 "/></g></g></g><g fill="#fccc54" fill-opacity="1"><g transform="translate(290.119354, 240.184321)"><g><path d="M 1.421875 0 L 1.421875 -8.59375 L 3 -8.59375 L 3 0 Z M 1.234375 -11.234375 C 1.234375 -11.503906 1.320312 -11.734375 1.5 -11.921875 C 1.6875 -12.117188 1.914062 -12.21875 2.1875 -12.21875 C 2.46875 -12.21875 2.703125 -12.117188 2.890625 -11.921875 C 3.085938 -11.734375 3.1875 -11.503906 3.1875 -11.234375 C 3.1875 -10.972656 3.085938 -10.738281 2.890625 -10.53125 C 2.703125 -10.332031 2.472656 -10.234375 2.203125 -10.234375 C 1.941406 -10.234375 1.710938 -10.332031 1.515625 -10.53125 C 1.328125 -10.726562 1.234375 -10.960938 1.234375 -11.234375 Z M 1.234375 -11.234375 "/></g></g></g><g fill="#fccc54" fill-opacity="1"><g transform="translate(294.545448, 240.184321)"><g><path d="M 4.328125 0.234375 C 3.222656 0.234375 2.304688 -0.140625 1.578125 -0.890625 C 0.859375 -1.648438 0.5 -2.71875 0.5 -4.09375 C 0.5 -5.476562 0.882812 -6.609375 1.65625 -7.484375 C 2.4375 -8.367188 3.429688 -8.8125 4.640625 -8.8125 C 5.304688 -8.8125 6.054688 -8.648438 6.890625 -8.328125 L 6.703125 -7.0625 C 5.585938 -7.644531 4.632812 -7.9375 3.84375 -7.9375 C 3.175781 -7.613281 2.695312 -7.082031 2.40625 -6.34375 C 2.113281 -5.613281 1.96875 -4.894531 1.96875 -4.1875 C 1.96875 -3.21875 2.25 -2.410156 2.8125 -1.765625 C 3.382812 -1.128906 4.0625 -0.8125 4.84375 -0.8125 C 5.625 -0.8125 6.347656 -0.984375 7.015625 -1.328125 L 7.015625 -0.671875 C 6.097656 -0.0664062 5.203125 0.234375 4.328125 0.234375 Z M 4.328125 0.234375 "/></g></g></g><g fill="#fccc54" fill-opacity="1"><g transform="translate(302.257873, 240.184321)"><g><path d="M 3.21875 -8.015625 C 2.882812 -8.015625 2.613281 -7.890625 2.40625 -7.640625 C 2.195312 -7.398438 2.09375 -7.125 2.09375 -6.8125 C 2.09375 -6.5 2.238281 -6.195312 2.53125 -5.90625 C 2.832031 -5.625 3.191406 -5.375 3.609375 -5.15625 C 4.035156 -4.9375 4.457031 -4.707031 4.875 -4.46875 C 5.300781 -4.226562 5.660156 -3.914062 5.953125 -3.53125 C 6.253906 -3.15625 6.40625 -2.734375 6.40625 -2.265625 C 6.40625 -1.554688 6.117188 -0.960938 5.546875 -0.484375 C 4.972656 -0.00390625 4.195312 0.234375 3.21875 0.234375 C 2.238281 0.234375 1.34375 0.00390625 0.53125 -0.453125 L 0.53125 -1.171875 C 1.394531 -0.742188 2.171875 -0.53125 2.859375 -0.53125 C 3.554688 -0.53125 4.0625 -0.671875 4.375 -0.953125 C 4.695312 -1.234375 4.859375 -1.550781 4.859375 -1.90625 C 4.859375 -2.269531 4.71875 -2.59375 4.4375 -2.875 C 4.15625 -3.164062 3.804688 -3.414062 3.390625 -3.625 C 2.984375 -3.84375 2.578125 -4.070312 2.171875 -4.3125 C 1.765625 -4.550781 1.414062 -4.859375 1.125 -5.234375 C 0.84375 -5.617188 0.703125 -6.078125 0.703125 -6.609375 C 0.703125 -7.148438 0.921875 -7.648438 1.359375 -8.109375 C 1.796875 -8.578125 2.46875 -8.8125 3.375 -8.8125 C 4.289062 -8.8125 5.164062 -8.648438 6 -8.328125 L 5.8125 -7.0625 C 4.875 -7.570312 4.007812 -7.890625 3.21875 -8.015625 Z M 3.21875 -8.015625 "/></g></g></g></svg>