<svg xmlns="http://www.w3.org/2000/svg" xmlns:xlink="http://www.w3.org/1999/xlink" width="500" zoomAndPan="magnify" viewBox="0 0 375 374.999991" height="500" preserveAspectRatio="xMidYMid meet" version="1.0"><defs><g/></defs><g fill="#ab77db" fill-opacity="1"><g transform="translate(5.763427, 199.431154)"><g><path d="M 43.890625 -90.359375 C 41.566406 -90.359375 39.394531 -89.15625 37.375 -86.75 C 35.351562 -84.34375 33.585938 -81.070312 32.078125 -76.9375 C 30.578125 -72.8125 29.394531 -68.015625 28.53125 -62.546875 C 27.664062 -57.078125 27.234375 -51.289062 27.234375 -45.1875 C 27.234375 -39.070312 27.664062 -33.28125 28.53125 -27.8125 C 29.394531 -22.351562 30.578125 -17.554688 32.078125 -13.421875 C 33.585938 -9.296875 35.351562 -6.023438 37.375 -3.609375 C 39.394531 -1.203125 41.566406 0 43.890625 0 C 38.296875 0 33.023438 -1.179688 28.078125 -3.546875 C 23.128906 -5.910156 18.800781 -9.132812 15.09375 -13.21875 C 11.394531 -17.3125 8.492188 -22.113281 6.390625 -27.625 C 4.285156 -33.132812 3.234375 -38.988281 3.234375 -45.1875 C 3.234375 -51.382812 4.285156 -57.234375 6.390625 -62.734375 C 8.492188 -68.242188 11.394531 -73.039062 15.09375 -77.125 C 18.800781 -81.21875 23.128906 -84.445312 28.078125 -86.8125 C 33.023438 -89.175781 38.296875 -90.359375 43.890625 -90.359375 Z M 58.34375 -82.234375 C 58.34375 -83.523438 57.976562 -84.644531 57.25 -85.59375 C 56.519531 -86.539062 55.59375 -87.335938 54.46875 -87.984375 C 53.351562 -88.628906 52.128906 -89.125 50.796875 -89.46875 C 49.460938 -89.8125 48.191406 -90.066406 46.984375 -90.234375 C 50.085938 -89.972656 53.101562 -89.347656 56.03125 -88.359375 C 58.957031 -87.367188 61.664062 -86.117188 64.15625 -84.609375 C 66.65625 -83.109375 68.875 -81.410156 70.8125 -79.515625 C 72.75 -77.628906 74.363281 -75.695312 75.65625 -73.71875 C 76.507812 -72.25 77.171875 -70.800781 77.640625 -69.375 C 78.117188 -67.957031 78.359375 -66.5625 78.359375 -65.1875 C 78.359375 -63.300781 77.992188 -61.515625 77.265625 -59.828125 C 76.535156 -58.148438 75.546875 -56.6875 74.296875 -55.4375 C 73.046875 -54.195312 71.582031 -53.207031 69.90625 -52.46875 C 68.226562 -51.738281 66.441406 -51.375 64.546875 -51.375 C 62.648438 -51.375 60.863281 -51.738281 59.1875 -52.46875 C 57.507812 -53.207031 56.046875 -54.195312 54.796875 -55.4375 C 53.546875 -56.6875 52.554688 -58.148438 51.828125 -59.828125 C 51.097656 -61.515625 50.734375 -63.300781 50.734375 -65.1875 C 50.734375 -67 51.054688 -68.722656 51.703125 -70.359375 C 52.347656 -71.992188 53.273438 -73.457031 54.484375 -74.75 C 55.679688 -75.945312 56.625 -77.191406 57.3125 -78.484375 C 58 -79.773438 58.34375 -81.023438 58.34375 -82.234375 Z M 86.109375 -35.375 C 83.953125 -35.375 82.117188 -34.488281 80.609375 -32.71875 C 79.109375 -30.957031 78.359375 -29 78.359375 -26.84375 L 78.359375 0 C 76.804688 -0.945312 75.125 -1.722656 73.3125 -2.328125 C 71.507812 -2.929688 69.40625 -3.234375 67 -3.234375 C 64.9375 -3.234375 63.0625 -3.101562 61.375 -2.84375 C 59.695312 -2.582031 58.082031 -2.28125 56.53125 -1.9375 C 54.988281 -1.59375 53.441406 -1.25 51.890625 -0.90625 C 50.347656 -0.5625 48.710938 -0.300781 46.984375 -0.125 C 48.453125 -0.300781 49.957031 -0.710938 51.5 -1.359375 C 53.050781 -2.003906 54.429688 -2.710938 55.640625 -3.484375 L 55.640625 -26.84375 C 55.640625 -29 54.882812 -30.957031 53.375 -32.71875 C 51.875 -34.488281 50.003906 -35.375 47.765625 -35.375 Z M 86.109375 -35.375 "/></g></g></g><g fill="#ab77db" fill-opacity="1"><g transform="translate(95.087257, 199.431154)"><g><path d="M 34.984375 0 C 38.679688 0 42.226562 -0.625 45.625 -1.875 C 49.03125 -3.125 52.109375 -4.84375 54.859375 -7.03125 C 57.617188 -9.226562 60.007812 -11.8125 62.03125 -14.78125 C 64.050781 -17.75 65.492188 -20.910156 66.359375 -24.265625 L 66.359375 0 Z M 41.5625 -90.359375 C 39.332031 -90.359375 37.460938 -89.476562 35.953125 -87.71875 C 34.441406 -85.957031 33.6875 -84 33.6875 -81.84375 L 33.6875 0 L 3.234375 0 C 5.378906 0 7.203125 -0.878906 8.703125 -2.640625 C 10.210938 -4.410156 10.96875 -6.367188 10.96875 -8.515625 L 10.96875 -81.84375 C 10.96875 -84 10.210938 -85.957031 8.703125 -87.71875 C 7.203125 -89.476562 5.378906 -90.359375 3.234375 -90.359375 Z M 41.5625 -90.359375 "/></g></g></g><g fill="#ab77db" fill-opacity="1"><g transform="translate(164.661747, 199.431154)"><g><path d="M 20.65625 -14.328125 C 20.65625 -12.347656 21.019531 -10.472656 21.75 -8.703125 C 22.476562 -6.941406 23.488281 -5.414062 24.78125 -4.125 C 26.070312 -2.832031 27.578125 -1.820312 29.296875 -1.09375 C 31.023438 -0.363281 32.878906 0 34.859375 0 L 3.234375 0 C 5.117188 -0.257812 6.941406 -0.863281 8.703125 -1.8125 C 10.472656 -2.757812 12.128906 -3.941406 13.671875 -5.359375 C 15.222656 -6.773438 16.601562 -8.34375 17.8125 -10.0625 C 19.019531 -11.789062 19.96875 -13.554688 20.65625 -15.359375 Z M 45.4375 0 C 47.25 0 48.800781 -0.75 50.09375 -2.25 C 51.382812 -3.757812 52.03125 -5.460938 52.03125 -7.359375 C 52.03125 -7.703125 52.03125 -8.046875 52.03125 -8.390625 C 52.03125 -8.734375 51.941406 -9.078125 51.765625 -9.421875 L 48.015625 -20.265625 L 47.765625 -21.046875 L 38.59375 -47.5 C 38 -48.96875 36.925781 -49.703125 35.375 -49.703125 C 33.90625 -49.703125 32.867188 -48.96875 32.265625 -47.5 L 47.765625 -90.359375 L 62.09375 -49.1875 C 62.695312 -47.46875 63.382812 -45.421875 64.15625 -43.046875 C 64.9375 -40.679688 65.625 -38.640625 66.21875 -36.921875 L 76.8125 -6.71875 C 77.414062 -4.988281 78.46875 -3.4375 79.96875 -2.0625 C 81.476562 -0.6875 83.222656 0 85.203125 0 Z M 45.4375 0 "/></g></g></g><g fill="#ab77db" fill-opacity="1"><g transform="translate(253.082008, 199.431154)"><g><path d="M 18.84375 -16.265625 C 18.84375 -14.203125 19.25 -12.179688 20.0625 -10.203125 C 20.882812 -8.222656 22.003906 -6.476562 23.421875 -4.96875 C 24.847656 -3.46875 26.503906 -2.265625 28.390625 -1.359375 C 30.285156 -0.453125 32.269531 0 34.34375 0 L 3.234375 0 C 5.296875 0 7.269531 -0.453125 9.15625 -1.359375 C 11.050781 -2.265625 12.707031 -3.46875 14.125 -4.96875 C 15.550781 -6.476562 16.691406 -8.222656 17.546875 -10.203125 C 18.410156 -12.179688 18.84375 -14.203125 18.84375 -16.265625 Z M 59.90625 -41.953125 C 61.539062 -41.953125 62.65625 -42.769531 63.25 -44.40625 L 61.96875 -40.671875 L 47.765625 0 L 25.296875 -64.9375 C 24.703125 -66.476562 23.585938 -67.25 21.953125 -67.25 C 21.003906 -67.25 20.179688 -66.90625 19.484375 -66.21875 C 18.796875 -65.53125 18.453125 -64.710938 18.453125 -63.765625 L 18.453125 -81.84375 C 18.453125 -84 17.632812 -85.957031 16 -87.71875 C 14.375 -89.476562 12.484375 -90.359375 10.328125 -90.359375 L 40.53125 -90.359375 L 54.34375 -50.734375 L 56.546875 -44.40625 C 56.710938 -43.71875 57.117188 -43.132812 57.765625 -42.65625 C 58.410156 -42.1875 59.125 -41.953125 59.90625 -41.953125 Z M 107.140625 -90.359375 C 104.992188 -90.359375 103.164062 -89.476562 101.65625 -87.71875 C 100.15625 -85.957031 99.40625 -84 99.40625 -81.84375 L 99.40625 -8.515625 C 99.40625 -6.367188 100.15625 -4.410156 101.65625 -2.640625 C 103.164062 -0.878906 104.992188 0 107.140625 0 L 68.8125 0 C 71.039062 0 72.910156 -0.878906 74.421875 -2.640625 C 75.929688 -4.410156 76.6875 -6.367188 76.6875 -8.515625 L 76.6875 -64.421875 C 76.6875 -65.367188 76.316406 -66.207031 75.578125 -66.9375 C 74.847656 -67.664062 74.007812 -68.03125 73.0625 -68.03125 C 71.425781 -68.03125 70.304688 -67.210938 69.703125 -65.578125 L 71.90625 -72.03125 L 78.109375 -90.359375 Z M 107.140625 -90.359375 "/></g></g></g><g fill="#fccc54" fill-opacity="1"><g transform="translate(170.640865, 233.227631)"><g><path d="M 17.96875 0.546875 C 13.269531 0.546875 9.3125 -0.722656 6.09375 -3.265625 C 2.882812 -5.816406 1.28125 -9.472656 1.28125 -14.234375 C 1.28125 -17.023438 1.804688 -19.507812 2.859375 -21.6875 C 3.921875 -23.875 5.316406 -25.585938 7.046875 -26.828125 C 10.535156 -29.378906 14.445312 -30.65625 18.78125 -30.65625 C 21.300781 -30.65625 23.925781 -30.203125 26.65625 -29.296875 L 26.203125 -26.203125 C 24.773438 -26.804688 23.664062 -27.257812 22.875 -27.5625 C 20.601562 -28.382812 18.316406 -28.796875 16.015625 -28.796875 C 12.828125 -28.066406 10.375 -26.488281 8.65625 -24.0625 C 6.945312 -21.632812 6.09375 -18.601562 6.09375 -14.96875 C 6.09375 -10.507812 7.257812 -7.070312 9.59375 -4.65625 C 11.925781 -2.25 15.003906 -1.046875 18.828125 -1.046875 C 22.648438 -1.046875 25.5 -1.863281 27.375 -3.5 L 27.375 -1 C 24.769531 0.03125 21.632812 0.546875 17.96875 0.546875 Z M 17.96875 0.546875 "/></g></g></g><g fill="#fccc54" fill-opacity="1"><g transform="translate(199.388601, 233.227631)"><g><path d="M 12.1875 -21.109375 C 14.851562 -21.109375 17.054688 -20.195312 18.796875 -18.375 C 20.546875 -16.550781 21.421875 -14.050781 21.421875 -10.875 C 21.421875 -8.84375 21.070312 -7.050781 20.375 -5.5 C 19.675781 -3.957031 18.765625 -2.757812 17.640625 -1.90625 C 15.492188 -0.269531 13.09375 0.546875 10.4375 0.546875 C 7.78125 0.546875 5.582031 -0.359375 3.84375 -2.171875 C 2.101562 -3.992188 1.234375 -6.5 1.234375 -9.6875 C 1.234375 -11.71875 1.570312 -13.503906 2.25 -15.046875 C 2.9375 -16.597656 3.835938 -17.800781 4.953125 -18.65625 C 7.109375 -20.289062 9.519531 -21.109375 12.1875 -21.109375 Z M 11.28125 -1 C 12.613281 -1 13.75 -1.515625 14.6875 -2.546875 C 16.382812 -4.367188 17.234375 -6.785156 17.234375 -9.796875 C 17.234375 -12.816406 16.71875 -15.164062 15.6875 -16.84375 C 14.65625 -18.53125 12.972656 -19.375 10.640625 -19.375 C 8.910156 -18.707031 7.597656 -17.53125 6.703125 -15.84375 C 5.804688 -14.164062 5.359375 -12.132812 5.359375 -9.75 C 5.359375 -7.375 5.84375 -5.320312 6.8125 -3.59375 C 7.789062 -1.863281 9.28125 -1 11.28125 -1 Z M 11.28125 -1 "/></g></g></g><g fill="#fccc54" fill-opacity="1"><g transform="translate(222.132053, 233.227631)"><g><path d="M 7.6875 -19.1875 C 6.894531 -19.1875 6.25 -18.890625 5.75 -18.296875 C 5.25 -17.710938 5 -17.046875 5 -16.296875 C 5 -15.554688 5.351562 -14.84375 6.0625 -14.15625 C 6.78125 -13.476562 7.644531 -12.875 8.65625 -12.34375 C 9.675781 -11.8125 10.6875 -11.257812 11.6875 -10.6875 C 12.6875 -10.113281 13.539062 -9.367188 14.25 -8.453125 C 14.96875 -7.546875 15.328125 -6.53125 15.328125 -5.40625 C 15.328125 -3.707031 14.644531 -2.289062 13.28125 -1.15625 C 11.914062 -0.0195312 10.054688 0.546875 7.703125 0.546875 C 5.359375 0.546875 3.21875 0 1.28125 -1.09375 L 1.28125 -2.8125 C 3.332031 -1.789062 5.191406 -1.28125 6.859375 -1.28125 C 8.535156 -1.28125 9.75 -1.613281 10.5 -2.28125 C 11.257812 -2.945312 11.640625 -3.710938 11.640625 -4.578125 C 11.640625 -5.441406 11.296875 -6.210938 10.609375 -6.890625 C 9.929688 -7.578125 9.097656 -8.175781 8.109375 -8.6875 C 7.128906 -9.195312 6.15625 -9.738281 5.1875 -10.3125 C 4.21875 -10.894531 3.390625 -11.640625 2.703125 -12.546875 C 2.023438 -13.460938 1.6875 -14.5625 1.6875 -15.84375 C 1.6875 -17.132812 2.207031 -18.332031 3.25 -19.4375 C 4.300781 -20.550781 5.914062 -21.109375 8.09375 -21.109375 C 10.28125 -21.109375 12.375 -20.710938 14.375 -19.921875 L 13.921875 -16.921875 C 11.671875 -18.128906 9.59375 -18.882812 7.6875 -19.1875 Z M 7.6875 -19.1875 "/></g></g></g><g fill="#fccc54" fill-opacity="1"><g transform="translate(239.053181, 233.227631)"><g><path d="M 26.75 -21.109375 C 30.320312 -21.109375 32.109375 -18.394531 32.109375 -12.96875 L 32.109375 0 L 28.296875 0 L 28.296875 -13.328125 C 28.296875 -15.867188 27.804688 -17.414062 26.828125 -17.96875 C 26.347656 -18.238281 25.675781 -18.375 24.8125 -18.375 C 23.945312 -18.375 23.019531 -18.109375 22.03125 -17.578125 C 21.050781 -17.046875 20.332031 -16.445312 19.875 -15.78125 L 19.875 0 L 16.015625 0 L 16.015625 -13.546875 C 16.015625 -15.160156 15.769531 -16.367188 15.28125 -17.171875 C 14.800781 -17.972656 14.085938 -18.375 13.140625 -18.375 C 12.203125 -18.375 11.300781 -18.160156 10.4375 -17.734375 C 9.570312 -17.316406 8.878906 -16.894531 8.359375 -16.46875 C 7.847656 -16.039062 7.59375 -15.78125 7.59375 -15.6875 L 7.59375 0 L 3.78125 0 L 3.78125 -14.28125 C 3.78125 -16.34375 3.003906 -17.992188 1.453125 -19.234375 L 3.78125 -20.96875 L 7.40625 -17.640625 C 8.832031 -18.828125 10.078125 -19.703125 11.140625 -20.265625 C 12.203125 -20.828125 13.3125 -21.109375 14.46875 -21.109375 C 17.101562 -21.109375 18.738281 -19.878906 19.375 -17.421875 C 20.4375 -18.628906 21.648438 -19.546875 23.015625 -20.171875 C 24.378906 -20.796875 25.625 -21.109375 26.75 -21.109375 Z M 26.75 -21.109375 "/></g></g></g><g fill="#fccc54" fill-opacity="1"><g transform="translate(274.441997, 233.227631)"><g><path d="M 4.78125 -11.1875 C 4.78125 -7.914062 5.515625 -5.554688 6.984375 -4.109375 C 8.453125 -2.671875 10.238281 -1.953125 12.34375 -1.953125 C 14.457031 -1.953125 16.40625 -2.363281 18.1875 -3.1875 L 18.1875 -1.59375 C 15.707031 -0.164062 13.328125 0.546875 11.046875 0.546875 C 8.109375 0.546875 5.726562 -0.347656 3.90625 -2.140625 C 2.09375 -3.929688 1.1875 -6.523438 1.1875 -9.921875 C 1.1875 -13.316406 2.191406 -16.03125 4.203125 -18.0625 C 6.222656 -20.09375 8.65625 -21.109375 11.5 -21.109375 C 13.71875 -21.109375 15.566406 -20.234375 17.046875 -18.484375 C 18.535156 -16.742188 19.28125 -14.3125 19.28125 -11.1875 Z M 9.1875 -18.96875 C 8.125 -18.445312 7.210938 -17.617188 6.453125 -16.484375 C 5.703125 -15.347656 5.203125 -14.035156 4.953125 -12.546875 L 15.59375 -12.546875 C 15.507812 -13.828125 15.21875 -14.921875 14.71875 -15.828125 C 14.21875 -16.734375 13.617188 -17.398438 12.921875 -17.828125 C 11.671875 -18.585938 10.425781 -18.96875 9.1875 -18.96875 Z M 9.1875 -18.96875 "/></g></g></g><g fill="#fccc54" fill-opacity="1"><g transform="translate(295.775358, 233.227631)"><g><path d="M 7.953125 -4 C 7.953125 -3.09375 8.132812 -2.410156 8.5 -1.953125 C 8.863281 -1.503906 9.46875 -1.28125 10.3125 -1.28125 C 11.164062 -1.28125 12.1875 -1.503906 13.375 -1.953125 L 13.375 -0.6875 C 11.613281 0.132812 10.035156 0.546875 8.640625 0.546875 C 7.242188 0.546875 6.144531 0.160156 5.34375 -0.609375 C 4.539062 -1.390625 4.140625 -2.597656 4.140625 -4.234375 L 4.140625 -18.921875 L 0.453125 -19.65625 L 0.453125 -20.5625 L 4.140625 -20.5625 L 4.140625 -22.203125 L 7.953125 -24.96875 L 7.953125 -20.5625 L 13.375 -20.5625 L 13.375 -18.921875 L 7.953125 -18.921875 Z M 7.953125 -4 "/></g></g></g><g fill="#fccc54" fill-opacity="1"><g transform="translate(310.740548, 233.227631)"><g><path d="M 3.40625 0 L 3.40625 -20.5625 L 7.1875 -20.5625 L 7.1875 0 Z M 2.953125 -26.890625 C 2.953125 -27.546875 3.171875 -28.101562 3.609375 -28.5625 C 4.054688 -29.019531 4.601562 -29.25 5.25 -29.25 C 5.90625 -29.25 6.46875 -29.019531 6.9375 -28.5625 C 7.40625 -28.101562 7.640625 -27.554688 7.640625 -26.921875 C 7.640625 -26.285156 7.40625 -25.722656 6.9375 -25.234375 C 6.46875 -24.753906 5.914062 -24.515625 5.28125 -24.515625 C 4.644531 -24.515625 4.097656 -24.75 3.640625 -25.21875 C 3.179688 -25.6875 2.953125 -26.242188 2.953125 -26.890625 Z M 2.953125 -26.890625 "/></g></g></g><g fill="#fccc54" fill-opacity="1"><g transform="translate(321.338994, 233.227631)"><g><path d="M 10.375 0.546875 C 7.726562 0.546875 5.535156 -0.351562 3.796875 -2.15625 C 2.054688 -3.957031 1.1875 -6.507812 1.1875 -9.8125 C 1.1875 -13.125 2.117188 -15.832031 3.984375 -17.9375 C 5.847656 -20.050781 8.21875 -21.109375 11.09375 -21.109375 C 12.707031 -21.109375 14.515625 -20.710938 16.515625 -19.921875 L 16.0625 -16.921875 C 13.382812 -18.316406 11.09375 -19.015625 9.1875 -19.015625 C 7.613281 -18.222656 6.476562 -16.945312 5.78125 -15.1875 C 5.082031 -13.425781 4.734375 -11.695312 4.734375 -10 C 4.734375 -7.695312 5.40625 -5.78125 6.75 -4.25 C 8.101562 -2.71875 9.71875 -1.953125 11.59375 -1.953125 C 13.476562 -1.953125 15.207031 -2.363281 16.78125 -3.1875 L 16.78125 -1.59375 C 14.601562 -0.164062 12.46875 0.546875 10.375 0.546875 Z M 10.375 0.546875 "/></g></g></g><g fill="#fccc54" fill-opacity="1"><g transform="translate(339.806682, 233.227631)"><g><path d="M 7.6875 -19.1875 C 6.894531 -19.1875 6.25 -18.890625 5.75 -18.296875 C 5.25 -17.710938 5 -17.046875 5 -16.296875 C 5 -15.554688 5.351562 -14.84375 6.0625 -14.15625 C 6.78125 -13.476562 7.644531 -12.875 8.65625 -12.34375 C 9.675781 -11.8125 10.6875 -11.257812 11.6875 -10.6875 C 12.6875 -10.113281 13.539062 -9.367188 14.25 -8.453125 C 14.96875 -7.546875 15.328125 -6.53125 15.328125 -5.40625 C 15.328125 -3.707031 14.644531 -2.289062 13.28125 -1.15625 C 11.914062 -0.0195312 10.054688 0.546875 7.703125 0.546875 C 5.359375 0.546875 3.21875 0 1.28125 -1.09375 L 1.28125 -2.8125 C 3.332031 -1.789062 5.191406 -1.28125 6.859375 -1.28125 C 8.535156 -1.28125 9.75 -1.613281 10.5 -2.28125 C 11.257812 -2.945312 11.640625 -3.710938 11.640625 -4.578125 C 11.640625 -5.441406 11.296875 -6.210938 10.609375 -6.890625 C 9.929688 -7.578125 9.097656 -8.175781 8.109375 -8.6875 C 7.128906 -9.195312 6.15625 -9.738281 5.1875 -10.3125 C 4.21875 -10.894531 3.390625 -11.640625 2.703125 -12.546875 C 2.023438 -13.460938 1.6875 -14.5625 1.6875 -15.84375 C 1.6875 -17.132812 2.207031 -18.332031 3.25 -19.4375 C 4.300781 -20.550781 5.914062 -21.109375 8.09375 -21.109375 C 10.28125 -21.109375 12.375 -20.710938 14.375 -19.921875 L 13.921875 -16.921875 C 11.671875 -18.128906 9.59375 -18.882812 7.6875 -19.1875 Z M 7.6875 -19.1875 "/></g></g></g></svg>