<svg xmlns="http://www.w3.org/2000/svg" xmlns:xlink="http://www.w3.org/1999/xlink" width="500" zoomAndPan="magnify" viewBox="0 0 375 374.999991" height="500" preserveAspectRatio="xMidYMid meet" version="1.0"><defs><g/></defs><g fill="#ab77db" fill-opacity="1"><g transform="translate(5.763427, 199.431204)"><g><path d="M 43.890625 -90.359375 C 41.566406 -90.359375 39.394531 -89.15625 37.375 -86.75 C 35.351562 -84.34375 33.585938 -81.070312 32.078125 -76.9375 C 30.578125 -72.8125 29.394531 -68.015625 28.53125 -62.546875 C 27.664062 -57.078125 27.234375 -51.289062 27.234375 -45.1875 C 27.234375 -39.070312 27.664062 -33.28125 28.53125 -27.8125 C 29.394531 -22.351562 30.578125 -17.554688 32.078125 -13.421875 C 33.585938 -9.296875 35.351562 -6.023438 37.375 -3.609375 C 39.394531 -1.203125 41.566406 0 43.890625 0 C 38.296875 0 33.023438 -1.179688 28.078125 -3.546875 C 23.128906 -5.910156 18.800781 -9.132812 15.09375 -13.21875 C 11.394531 -17.3125 8.492188 -22.113281 6.390625 -27.625 C 4.285156 -33.132812 3.234375 -38.988281 3.234375 -45.1875 C 3.234375 -51.382812 4.285156 -57.234375 6.390625 -62.734375 C 8.492188 -68.242188 11.394531 -73.039062 15.09375 -77.125 C 18.800781 -81.21875 23.128906 -84.445312 28.078125 -86.8125 C 33.023438 -89.175781 38.296875 -90.359375 43.890625 -90.359375 Z M 58.34375 -82.234375 C 58.34375 -83.523438 57.976562 -84.644531 57.25 -85.59375 C 56.519531 -86.539062 55.59375 -87.335938 54.46875 -87.984375 C 53.351562 -88.628906 52.128906 -89.125 50.796875 -89.46875 C 49.460938 -89.8125 48.191406 -90.066406 46.984375 -90.234375 C 50.085938 -89.972656 53.101562 -89.347656 56.03125 -88.359375 C 58.957031 -87.367188 61.664062 -86.117188 64.15625 -84.609375 C 66.65625 -83.109375 68.875 -81.410156 70.8125 -79.515625 C 72.75 -77.628906 74.363281 -75.695312 75.65625 -73.71875 C 76.507812 -72.25 77.171875 -70.800781 77.640625 -69.375 C 78.117188 -67.957031 78.359375 -66.5625 78.359375 -65.1875 C 78.359375 -63.300781 77.992188 -61.515625 77.265625 -59.828125 C 76.535156 -58.148438 75.546875 -56.6875 74.296875 -55.4375 C 73.046875 -54.195312 71.582031 -53.207031 69.90625 -52.46875 C 68.226562 -51.738281 66.441406 -51.375 64.546875 -51.375 C 62.648438 -51.375 60.863281 -51.738281 59.1875 -52.46875 C 57.507812 -53.207031 56.046875 -54.195312 54.796875 -55.4375 C 53.546875 -56.6875 52.554688 -58.148438 51.828125 -59.828125 C 51.097656 -61.515625 50.734375 -63.300781 50.734375 -65.1875 C 50.734375 -67 51.054688 -68.722656 51.703125 -70.359375 C 52.347656 -71.992188 53.273438 -73.457031 54.484375 -74.75 C 55.679688 -75.945312 56.625 -77.191406 57.3125 -78.484375 C 58 -79.773438 58.34375 -81.023438 58.34375 -82.234375 Z M 86.109375 -35.375 C 83.953125 -35.375 82.117188 -34.488281 80.609375 -32.71875 C 79.109375 -30.957031 78.359375 -29 78.359375 -26.84375 L 78.359375 0 C 76.804688 -0.945312 75.125 -1.722656 73.3125 -2.328125 C 71.507812 -2.929688 69.40625 -3.234375 67 -3.234375 C 64.9375 -3.234375 63.0625 -3.101562 61.375 -2.84375 C 59.695312 -2.582031 58.082031 -2.28125 56.53125 -1.9375 C 54.988281 -1.59375 53.441406 -1.25 51.890625 -0.90625 C 50.347656 -0.5625 48.710938 -0.300781 46.984375 -0.125 C 48.453125 -0.300781 49.957031 -0.710938 51.5 -1.359375 C 53.050781 -2.003906 54.429688 -2.710938 55.640625 -3.484375 L 55.640625 -26.84375 C 55.640625 -29 54.882812 -30.957031 53.375 -32.71875 C 51.875 -34.488281 50.003906 -35.375 47.765625 -35.375 Z M 86.109375 -35.375 "/></g></g></g><g fill="#ab77db" fill-opacity="1"><g transform="translate(95.087257, 199.431204)"><g><path d="M 34.984375 0 C 38.679688 0 42.226562 -0.625 45.625 -1.875 C 49.03125 -3.125 52.109375 -4.84375 54.859375 -7.03125 C 57.617188 -9.226562 60.007812 -11.8125 62.03125 -14.78125 C 64.050781 -17.75 65.492188 -20.910156 66.359375 -24.265625 L 66.359375 0 Z M 41.5625 -90.359375 C 39.332031 -90.359375 37.460938 -89.476562 35.953125 -87.71875 C 34.441406 -85.957031 33.6875 -84 33.6875 -81.84375 L 33.6875 0 L 3.234375 0 C 5.378906 0 7.203125 -0.878906 8.703125 -2.640625 C 10.210938 -4.410156 10.96875 -6.367188 10.96875 -8.515625 L 10.96875 -81.84375 C 10.96875 -84 10.210938 -85.957031 8.703125 -87.71875 C 7.203125 -89.476562 5.378906 -90.359375 3.234375 -90.359375 Z M 41.5625 -90.359375 "/></g></g></g><g fill="#ab77db" fill-opacity="1"><g transform="translate(164.661747, 199.431204)"><g><path d="M 20.65625 -14.328125 C 20.65625 -12.347656 21.019531 -10.472656 21.75 -8.703125 C 22.476562 -6.941406 23.488281 -5.414062 24.78125 -4.125 C 26.070312 -2.832031 27.578125 -1.820312 29.296875 -1.09375 C 31.023438 -0.363281 32.878906 0 34.859375 0 L 3.234375 0 C 5.117188 -0.257812 6.941406 -0.863281 8.703125 -1.8125 C 10.472656 -2.757812 12.128906 -3.941406 13.671875 -5.359375 C 15.222656 -6.773438 16.601562 -8.34375 17.8125 -10.0625 C 19.019531 -11.789062 19.96875 -13.554688 20.65625 -15.359375 Z M 45.4375 0 C 47.25 0 48.800781 -0.75 50.09375 -2.25 C 51.382812 -3.757812 52.03125 -5.460938 52.03125 -7.359375 C 52.03125 -7.703125 52.03125 -8.046875 52.03125 -8.390625 C 52.03125 -8.734375 51.941406 -9.078125 51.765625 -9.421875 L 48.015625 -20.265625 L 47.765625 -21.046875 L 38.59375 -47.5 C 38 -48.96875 36.925781 -49.703125 35.375 -49.703125 C 33.90625 -49.703125 32.867188 -48.96875 32.265625 -47.5 L 47.765625 -90.359375 L 62.09375 -49.1875 C 62.695312 -47.46875 63.382812 -45.421875 64.15625 -43.046875 C 64.9375 -40.679688 65.625 -38.640625 66.21875 -36.921875 L 76.8125 -6.71875 C 77.414062 -4.988281 78.46875 -3.4375 79.96875 -2.0625 C 81.476562 -0.6875 83.222656 0 85.203125 0 Z M 45.4375 0 "/></g></g></g><g fill="#ab77db" fill-opacity="1"><g transform="translate(253.082008, 199.431204)"><g><path d="M 18.84375 -16.265625 C 18.84375 -14.203125 19.25 -12.179688 20.0625 -10.203125 C 20.882812 -8.222656 22.003906 -6.476562 23.421875 -4.96875 C 24.847656 -3.46875 26.503906 -2.265625 28.390625 -1.359375 C 30.285156 -0.453125 32.269531 0 34.34375 0 L 3.234375 0 C 5.296875 0 7.269531 -0.453125 9.15625 -1.359375 C 11.050781 -2.265625 12.707031 -3.46875 14.125 -4.96875 C 15.550781 -6.476562 16.691406 -8.222656 17.546875 -10.203125 C 18.410156 -12.179688 18.84375 -14.203125 18.84375 -16.265625 Z M 59.90625 -41.953125 C 61.539062 -41.953125 62.65625 -42.769531 63.25 -44.40625 L 61.96875 -40.671875 L 47.765625 0 L 25.296875 -64.9375 C 24.703125 -66.476562 23.585938 -67.25 21.953125 -67.25 C 21.003906 -67.25 20.179688 -66.90625 19.484375 -66.21875 C 18.796875 -65.53125 18.453125 -64.710938 18.453125 -63.765625 L 18.453125 -81.84375 C 18.453125 -84 17.632812 -85.957031 16 -87.71875 C 14.375 -89.476562 12.484375 -90.359375 10.328125 -90.359375 L 40.53125 -90.359375 L 54.34375 -50.734375 L 56.546875 -44.40625 C 56.710938 -43.71875 57.117188 -43.132812 57.765625 -42.65625 C 58.410156 -42.1875 59.125 -41.953125 59.90625 -41.953125 Z M 107.140625 -90.359375 C 104.992188 -90.359375 103.164062 -89.476562 101.65625 -87.71875 C 100.15625 -85.957031 99.40625 -84 99.40625 -81.84375 L 99.40625 -8.515625 C 99.40625 -6.367188 100.15625 -4.410156 101.65625 -2.640625 C 103.164062 -0.878906 104.992188 0 107.140625 0 L 68.8125 0 C 71.039062 0 72.910156 -0.878906 74.421875 -2.640625 C 75.929688 -4.410156 76.6875 -6.367188 76.6875 -8.515625 L 76.6875 -64.421875 C 76.6875 -65.367188 76.316406 -66.207031 75.578125 -66.9375 C 74.847656 -67.664062 74.007812 -68.03125 73.0625 -68.03125 C 71.425781 -68.03125 70.304688 -67.210938 69.703125 -65.578125 L 71.90625 -72.03125 L 78.109375 -90.359375 Z M 107.140625 -90.359375 "/></g></g></g></svg>