<?xml version="1.0" standalone="no"?>
<!DOCTYPE svg PUBLIC "-//W3C//DTD SVG 20010904//EN"
 "http://www.w3.org/TR/2001/REC-SVG-20010904/DTD/svg10.dtd">
<svg version="1.0" xmlns="http://www.w3.org/2000/svg"
 width="1200.000000pt" height="300.000000pt" viewBox="0 0 1200.000000 300.000000"
 preserveAspectRatio="xMidYMid meet">

<g transform="translate(0.000000,300.000000) scale(0.100000,-0.100000)"
fill="#000000" stroke="none">
<path d="M1525 2900 c-637 -134 -1090 -797 -1026 -1504 20 -228 56 -356 156
-561 200 -408 555 -664 995 -719 l45 -6 -46 25 c-129 68 -258 314 -333 635
-59 249 -70 368 -70 730 -1 360 7 448 60 710 67 326 199 596 332 681 l46 29
-35 -1 c-18 0 -74 -9 -124 -19z"/>
<path d="M3375 2904 c43 -22 83 -62 113 -114 l27 -45 3 -1205 c3 -1319 6
-1245 -56 -1334 -15 -22 -47 -52 -71 -68 l-45 -28 435 0 436 0 6 1298 c5 846
11 1310 17 1334 15 54 85 137 133 159 42 18 39 19 -493 19 -490 0 -532 -1
-505 -16z"/>
<path d="M8537 2889 c51 -25 98 -77 127 -138 19 -43 21 -66 24 -327 l3 -282
24 23 c47 48 126 41 166 -15 10 -14 172 -473 360 -1020 188 -547 344 -1001
348 -1008 4 -7 27 45 53 120 25 73 119 340 208 593 89 253 173 490 185 527
l24 68 -29 -15 c-66 -34 -137 -5 -164 67 -9 23 -123 354 -255 733 l-238 690
-439 3 -439 2 42 -21z"/>
<path d="M10539 2883 c-6 -16 -51 -147 -100 -293 -49 -146 -101 -295 -114
-332 -14 -38 -23 -68 -21 -68 1 0 17 7 35 16 46 23 92 11 130 -32 l31 -35 -2
-927 -3 -927 -22 -41 c-35 -66 -74 -105 -128 -130 l-50 -24 550 0 c544 0 550
1 510 19 -52 24 -98 74 -127 136 l-23 50 1 1193 c1 898 5 1203 14 1236 16 59
76 135 129 163 l44 23 -422 0 -421 0 -11 -27z"/>
<path d="M6620 2307 c-118 -326 -222 -614 -232 -640 l-18 -48 22 15 c33 24 99
21 127 -5 30 -28 19 3 250 -670 147 -427 201 -597 201 -630 -1 -90 -49 -172
-122 -208 l-43 -21 569 0 570 0 -52 26 c-52 26 -105 81 -135 139 -13 27 -384
1083 -417 1190 -32 103 -493 1431 -499 1437 -3 4 -103 -260 -221 -585z"/>
<path d="M2084 2857 c88 -50 119 -92 124 -172 5 -81 -22 -144 -105 -236 -31
-35 -70 -93 -87 -129 -29 -60 -31 -73 -31 -175 0 -103 2 -114 32 -178 65 -136
182 -224 330 -248 237 -38 467 149 481 391 13 220 -162 469 -447 639 -85 51
-256 123 -321 136 -31 6 -29 3 24 -28z"/>
<path d="M1957 1203 c37 -7 111 -81 140 -141 l28 -57 3 -391 3 -392 -28 -20
c-15 -11 -55 -32 -88 -46 -33 -15 -49 -25 -35 -22 308 68 323 70 480 70 167 0
229 -13 328 -70 l42 -25 0 434 c0 339 3 444 14 480 21 69 72 133 130 162 l50
25 -545 -1 c-299 -1 -534 -4 -522 -6z"/>
<path d="M5230 805 c0 -28 -79 -185 -131 -260 -137 -199 -388 -368 -622 -419
-56 -13 -21 -14 351 -15 l412 -1 0 355 c0 195 -2 355 -5 355 -3 0 -5 -7 -5
-15z"/>
<path d="M5971 531 c-68 -161 -274 -358 -425 -405 -31 -10 -56 -20 -56 -22 0
-2 197 -4 438 -3 395 0 432 2 385 14 -74 20 -121 46 -181 100 -83 75 -128 166
-140 285 l-7 65 -14 -34z"/>
<path d="M8680 490 c-46 -167 -179 -315 -331 -370 l-54 -19 390 0 390 -1 -56
24 c-84 34 -121 60 -186 129 -64 69 -110 151 -128 230 l-12 52 -13 -45z"/>
</g>
</svg>
